<svg width="16" height="15" viewBox="0 0 16 15" fill="none" xmlns="http://www.w3.org/2000/svg">
<path d="M4.89219 5.8462L4.89219 5.8462L4.89245 5.84681L4.89559 5.85471L4.89566 5.85491L6.05912 8.93788C6.12167 9.10364 6.03801 9.28871 5.87225 9.35126L5.87224 9.35126C5.83482 9.36539 5.79656 9.37203 5.75908 9.37203C5.62928 9.37203 5.50733 9.29272 5.45887 9.16439C5.45887 9.16439 5.45887 9.16438 5.45887 9.16438L5.27185 8.66883L5.24744 8.60413H5.17829H3.8727H3.80378L3.77924 8.66854L3.59003 9.16531L3.59003 9.16532C3.52698 9.33087 3.34179 9.41401 3.1761 9.35092L3.14074 9.44378L3.1761 9.35092C3.01055 9.28788 2.92745 9.10256 2.9905 8.93699C2.9905 8.93698 2.9905 8.93698 2.9905 8.93698L4.16462 5.85418L4.16473 5.85388L4.16728 5.84743L4.16728 5.84743L4.1675 5.84689C4.228 5.69904 4.36989 5.60367 4.52962 5.60354H4.52962H4.52962H4.52962H4.52962H4.52962H4.52962H4.52962H4.52962H4.52963H4.52963H4.52963H4.52963H4.52963H4.52963H4.52963H4.52963H4.52963H4.52963H4.52964H4.52964H4.52964H4.52964H4.52964H4.52964H4.52964H4.52964H4.52964H4.52964H4.52965H4.52965H4.52965H4.52965H4.52965H4.52965H4.52965H4.52965H4.52965H4.52965H4.52966H4.52966H4.52966H4.52966H4.52966H4.52966H4.52966H4.52966H4.52966H4.52966H4.52966H4.52967H4.52967H4.52967H4.52967H4.52967H4.52967H4.52967H4.52967H4.52967H4.52967H4.52968H4.52968H4.52968H4.52968H4.52968H4.52968H4.52968H4.52968H4.52968H4.52968H4.52969H4.52969H4.52969H4.52969H4.52969H4.52969H4.52969H4.52969H4.52969H4.52969H4.52969H4.5297H4.5297H4.5297H4.5297H4.5297H4.5297H4.5297H4.5297H4.5297H4.5297H4.52971H4.52971H4.52971H4.52971H4.52971H4.52971H4.52971H4.52971H4.52971H4.52971H4.52972H4.52972H4.52972H4.52972H4.52972H4.52972H4.52972H4.52972H4.52972H4.52972H4.52972H4.52973H4.52973H4.52973H4.52973H4.52973H4.52973H4.52973H4.52973H4.52973H4.52973H4.52974H4.52974H4.52974H4.52974H4.52974H4.52974H4.52974H4.52974H4.52974H4.52974H4.52974H4.52975H4.52975H4.52975H4.52975H4.52975H4.52975H4.52975H4.52975H4.52975H4.52975H4.52976H4.52976H4.52976H4.52976H4.52976H4.52976H4.52976H4.52976H4.52976H4.52977H4.52977H4.52977H4.52977H4.52977H4.52977H4.52977H4.52977H4.52977H4.52977H4.52977H4.52978H4.52978H4.52978H4.52978H4.52978H4.52978H4.52978H4.52978H4.52978H4.52978H4.52979H4.52979H4.52979H4.52979H4.52979H4.52979H4.52979H4.52979H4.52979H4.5298H4.5298H4.5298H4.5298H4.5298H4.5298H4.5298H4.5298H4.5298H4.5298H4.52981H4.52981H4.52981H4.52981H4.52981H4.52981H4.52981H4.52981H4.52981H4.52982H4.52982H4.52982H4.52982H4.52982H4.52982H4.52982H4.52982H4.52983H4.52983H4.52983H4.52983H4.52983H4.52983H4.52983H4.52983H4.52983H4.52984H4.52984H4.52984H4.52984H4.52984H4.52984H4.52984H4.52984H4.52985H4.52985H4.52985H4.52985H4.52985H4.52985H4.52985H4.52985H4.52986H4.52986H4.52986H4.52986H4.52986H4.52986H4.52986H4.52987H4.52987H4.52987H4.52987H4.52987H4.52987H4.52987H4.52988H4.52988H4.52988H4.52988H4.52988H4.52988H4.52989H4.52989H4.52989H4.52989H4.52989H4.52989H4.5299H4.5299H4.5299H4.5299H4.5299H4.5299H4.52991H4.52991H4.52991H4.52991H4.52991H4.52991H4.52992H4.52992H4.52992H4.52992H4.52992H4.52992H4.52992H4.52993H4.52993H4.52993H4.52993H4.52993H4.52993H4.52993H4.52994H4.52994H4.52994H4.52994H4.52994H4.52994H4.52994H4.52995H4.52995H4.52995H4.52995H4.52995H4.52995H4.52996H4.52996H4.52996H4.52996H4.52996H4.52996H4.52996H4.52997H4.52997H4.52997H4.52997H4.52997H4.52997H4.52998H4.52998H4.52998H4.52998H4.52998H4.52998H4.52999H4.52999H4.52999H4.52999H4.52999H4.52999H4.53H4.53H4.53H4.53H4.53H4.53H4.53001H4.53001H4.53001H4.53001C4.6896 5.60354 4.83148 5.6986 4.89219 5.8462ZM4.98922 5.8196L4.98468 5.80816L4.98922 5.8196ZM3.68348 9.20091L3.8727 8.70413H5.17829L3.68348 9.20091ZM4.09977 7.82701L4.04812 7.9626H4.19322H4.86072H5.00534L4.95427 7.82729L4.62205 6.94699L4.52892 6.70022L4.43504 6.94671L4.09977 7.82701Z" fill="#A3A3C5" stroke="#0E1A31" stroke-width="0.2"/>
<path d="M11.9557 8.61614V8.71614H12.0557H12.9404C13.1176 8.71614 13.2612 8.85976 13.2612 9.03692C13.2612 9.21407 13.1176 9.3577 12.9404 9.3577H11.6349C11.4577 9.3577 11.3141 9.21407 11.3141 9.03692V5.9386C11.3141 5.76145 11.4577 5.61782 11.6349 5.61782H12.9404C13.1176 5.61782 13.2612 5.76145 13.2612 5.9386C13.2612 6.11576 13.1176 6.25938 12.9404 6.25938H12.0557H11.9557V6.35938V7.06697V7.16697H12.0557H12.8441C13.0213 7.16697 13.1649 7.31059 13.1649 7.48775C13.1649 7.6649 13.0213 7.80853 12.8441 7.80853H12.0557H11.9557V7.90853V8.61614Z" fill="#A3A3C5" stroke="#0E1A31" stroke-width="0.2"/>
<path d="M9.33089 6.44715L9.33093 6.44718C9.47784 6.5464 9.67714 6.50774 9.77642 6.36103C9.87564 6.21412 9.83698 6.01482 9.69026 5.91554C9.37836 5.70486 9.01411 5.59353 8.6365 5.59353C8.46508 5.59353 8.29919 5.61645 8.14169 5.65955L8.14158 5.65958C7.34176 5.87752 6.7521 6.61035 6.7521 7.47793C6.7521 8.34522 7.34175 9.07805 8.14158 9.29599L8.14169 9.29602C8.29919 9.33912 8.46508 9.36205 8.6365 9.36205C9.13005 9.36205 9.54521 9.16957 9.83797 8.84145C10.1315 8.51248 10.3069 8.04134 10.3069 7.47793C10.3069 7.30065 10.1632 7.15715 9.98608 7.15715H9.05055C8.87346 7.15715 8.72977 7.30065 8.72977 7.47793C8.72977 7.65497 8.8735 7.79871 9.05055 7.79871H9.51144H9.64197L9.60799 7.92474C9.55241 8.13094 9.45231 8.3299 9.29237 8.47812C9.1306 8.62802 8.91338 8.72049 8.6365 8.72049C8.43252 8.72049 8.23957 8.67106 8.06949 8.58343M9.33089 6.44715L8.06949 8.58343M9.33089 6.44715C9.12556 6.30864 8.88531 6.23509 8.6365 6.23509C8.43253 6.23509 8.23959 6.28451 8.06952 6.37213M9.33089 6.44715L8.06952 6.37213M8.06949 8.58343C7.66871 8.37736 7.39366 7.95929 7.39366 7.47793C7.39366 6.99653 7.66875 6.57846 8.06952 6.37213M8.06949 8.58343L8.06952 6.37213M8.06952 6.37213C8.06951 6.37214 8.0695 6.37215 8.06949 6.37215L8.11529 6.46104L8.06952 6.37213Z" fill="#A3A3C5" stroke="#0E1A31" stroke-width="0.2"/>
<path d="M3.6324 11.9658C4.82994 13.1631 6.42189 13.8226 8.11539 13.8226C9.80889 13.8226 11.4008 13.1631 12.5984 11.9658C13.7956 10.7683 14.4551 9.17632 14.4551 7.48283C14.4551 7.25055 14.6437 7.06205 14.8759 7.06205C15.1082 7.06205 15.2967 7.25055 15.2967 7.48283C15.2967 9.40102 14.5497 11.2045 13.1934 12.5608C11.8371 13.9171 10.0336 14.6641 8.11539 14.6641C6.1972 14.6641 4.39374 13.9171 3.03742 12.5608C1.68111 11.2045 0.934082 9.40102 0.934082 7.48283C0.934082 5.56463 1.68111 3.76117 3.03742 2.40485C4.39374 1.04854 6.1972 0.301514 8.11539 0.301514C9.07702 0.301514 10.0103 0.48834 10.8895 0.857224C11.3554 1.05238 11.7988 1.29646 12.2132 1.58511L3.6324 11.9658ZM3.6324 11.9658C2.43514 10.7683 1.77564 9.17632 1.77564 7.48283C1.77564 5.78933 2.43514 4.19738 3.6324 2.99984V11.9658ZM12.6691 12.0365L12.6691 12.0365C13.8851 10.8202 14.5551 9.20285 14.5551 7.48283C14.5551 7.30578 14.6989 7.16205 14.8759 7.16205C15.053 7.16205 15.1967 7.30578 15.1967 7.48283C15.1967 9.3745 14.4602 11.1525 13.1227 12.4901C11.7851 13.8276 10.0071 14.5641 8.11539 14.5641C6.22372 14.5641 4.44569 13.8276 3.10813 12.4901C1.77057 11.1525 1.03408 9.3745 1.03408 7.48283C1.03408 5.59115 1.77057 3.81312 3.10813 2.47556C4.44569 1.138 6.22372 0.401514 8.11539 0.401514C9.06386 0.401514 9.98399 0.585743 10.8508 0.949435L10.8508 0.94946C11.35 1.15855 11.823 1.42463 12.2618 1.7422L12.4394 1.87079L12.42 1.65235L12.3754 1.15025C12.3754 1.15024 12.3754 1.15023 12.3754 1.15022C12.3598 0.973781 12.49 0.818086 12.6665 0.802257L12.6576 0.702657L12.6664 0.802268C12.8428 0.786654 12.9988 0.917168 13.0144 1.09354L13.0144 1.09357L13.1485 2.60389L13.1484 2.60389L13.1486 2.60551C13.1663 2.77328 13.0296 2.9376 12.8614 2.95151L12.8614 2.95142L12.8571 2.95195L11.352 3.14157C11.338 3.14332 11.3245 3.14417 11.3111 3.14417C11.1519 3.14417 11.014 3.02566 10.9934 2.86357C10.9712 2.68782 11.0959 2.52722 11.2716 2.5052L11.2717 2.50519L11.8294 2.43478L12.0814 2.40296L11.8753 2.25444C11.4793 1.96895 11.0527 1.72958 10.6027 1.54092L10.6027 1.54092C9.81472 1.21061 8.97768 1.04307 8.11539 1.04307C6.39537 1.04307 4.77799 1.71311 3.5617 2.92912L3.56168 2.92913C2.34568 4.14542 1.67564 5.7628 1.67564 7.48283C1.67564 9.20285 2.34568 10.8202 3.56168 12.0365L3.5617 12.0365C4.77799 13.2525 6.39537 13.9226 8.11539 13.9226C9.83542 13.9226 11.4528 13.2525 12.6691 12.0365Z" fill="#A3A3C5" stroke="#0E1A31" stroke-width="0.2"/>
</svg>
