<svg width="93.000000" height="93.000000" viewBox="0 0 93 93" fill="none" xmlns="http://www.w3.org/2000/svg" xmlns:xlink="http://www.w3.org/1999/xlink">
	<desc>
			Created with Pixso.
	</desc>
	<defs>
		<filter id="filter_234_2451_dd" x="-0.600098" y="-0.600098" width="93.326660" height="93.326660" filterUnits="userSpaceOnUse" color-interpolation-filters="sRGB">
			<feFlood flood-opacity="0" result="BackgroundImageFix"/>
			<feGaussianBlur in="BackgroundImage" stdDeviation="14.8"/>
			<feComposite in2="SourceAlpha" operator="in" result="effect_backgroundBlur_1"/>
			<feColorMatrix in="SourceAlpha" type="matrix" values="0 0 0 0 0 0 0 0 0 0 0 0 0 0 0 0 0 0 127 0" result="hardAlpha"/>
			<feOffset dx="0" dy="0"/>
			<feGaussianBlur stdDeviation="3.53333"/>
			<feComposite in2="hardAlpha" operator="out" k2="-1" k3="1"/>
			<feColorMatrix type="matrix" values="0 0 0 0 0.25098 0 0 0 0 0.34118 0 0 0 0 0.85098 0 0 0 0.7 0"/>
			<feBlend mode="normal" in2="effect_backgroundBlur_1" result="effect_dropShadow_2"/>
			<feBlend mode="normal" in="SourceGraphic" in2="effect_dropShadow_2" result="shape"/>
		</filter>
		<clipPath id="clip234_2452">
			<rect id="free-icon-collaboration-12209783 1" width="58.000000" height="58.000000" transform="translate(17.063232 17.063232)" fill="white" fill-opacity="0"/>
		</clipPath>
		<clipPath id="clip234_2451">
			<rect id="free-icon-chat-134808 2" rx="8.500000" width="71.126579" height="71.126579" transform="translate(10.500000 10.500000)" fill="white" fill-opacity="0"/>
		</clipPath>
	</defs>
	<g filter="url(#filter_234_2451_dd)">
		<rect id="free-icon-chat-134808 2" rx="8.500000" width="71.126579" height="71.126579" transform="translate(10.500000 10.500000)" fill="#FFFFFF" fill-opacity="0.050000"/>
		<rect id="free-icon-chat-134808 2" rx="8.500000" width="71.126579" height="71.126579" transform="translate(10.500000 10.500000)" fill="#071836" fill-opacity="0.500000"/>
		<g clip-path="url(#clip234_2451)">
			<rect id="free-icon-collaboration-12209783 1" width="58.000000" height="58.000000" transform="translate(17.063232 17.063232)" fill="#FFFFFF" fill-opacity="0"/>
			<g clip-path="url(#clip234_2452)">
				<path id="Vector" d="M48.31 26.81C48.66 26.81 49 26.67 49.24 26.43C49.49 26.18 49.63 25.84 49.63 25.49C49.63 25.15 49.49 24.81 49.24 24.56C49 24.31 48.66 24.17 48.32 24.17C48.14 24.17 47.97 24.1 47.85 23.98C47.73 23.86 47.66 23.69 47.66 23.51L47.66 19.51C47.66 19.33 47.73 19.16 47.85 19.04C47.98 18.91 48.15 18.84 48.32 18.84L61.42 18.86C61.6 18.86 61.76 18.93 61.89 19.05C62.01 19.17 62.08 19.34 62.08 19.52L62.07 32.69C62.07 32.87 62 33.03 61.88 33.16C61.75 33.28 61.58 33.35 61.41 33.35L56.83 33.35C56.66 33.35 56.49 33.28 56.37 33.15C56.24 33.03 56.17 32.86 56.17 32.69C56.17 32.34 56.03 32 55.79 31.75C55.54 31.5 55.21 31.37 54.86 31.37C54.51 31.36 54.18 31.5 53.93 31.75C53.69 32 53.55 32.33 53.55 32.68C53.55 32.86 53.48 33.03 53.35 33.15C53.23 33.27 53.06 33.34 52.89 33.34L48.31 33.34C48.13 33.34 47.97 33.27 47.84 33.15C47.72 33.02 47.65 32.85 47.65 32.68L47.65 27.47C47.66 27.3 47.73 27.13 47.85 27.01C47.97 26.88 48.14 26.81 48.31 26.81L48.31 26.81ZM48.98 22.93C49.54 23.08 50.04 23.41 50.4 23.88C50.75 24.34 50.94 24.91 50.94 25.5C50.94 26.08 50.75 26.65 50.39 27.11C50.04 27.58 49.54 27.91 48.97 28.05L48.97 32.02L52.31 32.02C52.46 31.45 52.79 30.95 53.25 30.59C53.71 30.23 54.28 30.04 54.86 30.04C55.44 30.04 56.01 30.24 56.47 30.6C56.93 30.95 57.26 31.46 57.41 32.02L60.75 32.03L60.76 20.18L48.98 20.17L48.98 22.93ZM43.14 24.94C43.14 24.85 43.15 24.76 43.18 24.67C43.21 24.59 43.25 24.51 43.32 24.44C43.38 24.37 43.45 24.32 43.54 24.28C43.62 24.24 43.71 24.22 43.8 24.22C44.15 24.22 44.49 24.09 44.73 23.84C44.98 23.59 45.12 23.26 45.12 22.91C45.12 22.56 44.98 22.22 44.73 21.97C44.49 21.73 44.15 21.59 43.81 21.59C43.63 21.59 43.47 21.52 43.34 21.39C43.22 21.27 43.15 21.1 43.15 20.92L43.15 18.39L31.37 18.38L31.36 30.23L33.38 30.23C33.55 30.23 33.72 30.3 33.84 30.42C33.97 30.55 34.04 30.72 34.04 30.89C34.04 31.07 34.07 31.24 34.13 31.4C34.2 31.56 34.29 31.71 34.42 31.84C34.54 31.96 34.68 32.06 34.84 32.12C35 32.19 35.17 32.23 35.35 32.23C35.52 32.23 35.69 32.19 35.85 32.13C36.01 32.06 36.16 31.96 36.28 31.84C36.4 31.71 36.5 31.57 36.56 31.41C36.63 31.24 36.66 31.07 36.66 30.9C36.66 30.81 36.67 30.72 36.71 30.64C36.74 30.56 36.79 30.49 36.85 30.43C36.91 30.37 36.98 30.32 37.06 30.29C37.14 30.25 37.23 30.24 37.32 30.24L43.14 30.24L43.14 24.94ZM44.47 20.35C45.03 20.49 45.53 20.83 45.89 21.29C46.24 21.75 46.43 22.32 46.43 22.91C46.43 23.49 46.24 24.06 45.88 24.53C45.53 24.99 45.03 25.32 44.46 25.47L44.46 30.9C44.46 31.08 44.39 31.25 44.26 31.37C44.14 31.5 43.97 31.57 43.8 31.57L37.89 31.56C37.74 32.13 37.41 32.63 36.95 32.99C36.49 33.35 35.93 33.54 35.34 33.54C34.76 33.54 34.2 33.34 33.73 32.98C33.27 32.63 32.95 32.12 32.8 31.56L30.7 31.55C30.52 31.55 30.36 31.48 30.23 31.36C30.11 31.24 30.04 31.07 30.04 30.89L30.05 17.72C30.05 17.54 30.12 17.38 30.24 17.25C30.37 17.13 30.53 17.06 30.71 17.06L43.81 17.07C43.98 17.07 44.15 17.14 44.28 17.26C44.4 17.39 44.47 17.56 44.47 17.73L44.47 20.35ZM36.44 40.95L30.7 35.17C30.64 35.12 30.57 35.09 30.49 35.09C30.42 35.09 30.34 35.12 30.29 35.17L19.08 46.44C19.03 46.49 19 46.57 19 46.65C19 46.72 19.03 46.8 19.08 46.85L24.82 52.63C24.88 52.68 24.95 52.71 25.03 52.71C25.11 52.71 25.18 52.68 25.23 52.63L36.44 41.36C36.5 41.3 36.53 41.23 36.53 41.15C36.53 41.08 36.5 41 36.44 40.95L36.44 40.95ZM34.41 60.96C34.41 59.6 32.78 58.96 31.85 59.89L29.76 61.99C28.83 62.93 29.47 64.57 30.82 64.57C31.02 64.57 31.21 64.53 31.39 64.45C31.58 64.38 31.74 64.27 31.88 64.13L33.97 62.03C34.11 61.88 34.22 61.72 34.3 61.53C34.37 61.35 34.41 61.16 34.41 60.96L34.41 60.96ZM37.03 62.97C37.31 63.25 37.47 63.63 37.47 64.03C37.47 64.43 37.31 64.82 37.03 65.1L34.94 67.2C34.8 67.34 34.64 67.45 34.45 67.53C34.27 67.6 34.08 67.64 33.88 67.64C32.53 67.64 31.89 66 32.82 65.07L34.91 62.97C35.19 62.68 35.57 62.53 35.97 62.53C36.37 62.53 36.75 62.68 37.03 62.97ZM40.09 66.04C39.81 65.76 39.42 65.6 39.03 65.6C38.63 65.6 38.25 65.76 37.97 66.04L35.87 68.14C34.95 69.08 35.59 70.72 36.94 70.72C37.61 70.72 37.9 70.37 38.31 69.97L40.09 68.18C40.37 67.89 40.53 67.51 40.53 67.11C40.53 66.71 40.37 66.32 40.09 66.04L40.09 66.04ZM42.87 70.33C42.87 70.49 42.83 70.66 42.77 70.81C42.71 70.97 42.62 71.11 42.5 71.22L41.03 72.7C40.79 72.94 40.47 73.07 40.14 73.07C39.8 73.07 39.48 72.93 39.25 72.7C39.01 72.46 38.88 72.14 38.88 71.8C38.88 71.47 39.01 71.14 39.24 70.9L40.71 69.43C40.89 69.25 41.11 69.13 41.36 69.08C41.6 69.03 41.86 69.06 42.09 69.16C42.32 69.25 42.51 69.41 42.65 69.62C42.79 69.83 42.87 70.08 42.87 70.33L42.87 70.33ZM58.55 60.89C59.12 61.43 59.63 61.79 59.63 62.69C59.62 64.39 57.59 65.21 56.42 64.04L54.4 62.01C54.28 61.88 54.11 61.81 53.93 61.81C53.76 61.81 53.59 61.88 53.47 62.01C53.34 62.13 53.27 62.3 53.27 62.48C53.27 62.65 53.34 62.82 53.47 62.95L55.11 64.6C55.28 64.77 55.42 64.98 55.51 65.21C55.6 65.43 55.65 65.67 55.65 65.92C55.65 67.59 53.64 68.39 52.49 67.23L50.58 65.31C50.52 65.25 50.45 65.2 50.37 65.17C50.29 65.13 50.2 65.12 50.11 65.12C50.03 65.12 49.94 65.13 49.86 65.17C49.78 65.2 49.71 65.25 49.65 65.31C49.59 65.37 49.54 65.45 49.5 65.53C49.47 65.61 49.45 65.69 49.45 65.78C49.45 65.87 49.47 65.95 49.5 66.03C49.54 66.12 49.59 66.19 49.65 66.25L51.56 68.17C51.72 68.34 51.9 68.48 52.09 68.6C52.17 68.98 52.17 69.37 52.09 69.74C51.99 70.16 51.79 70.54 51.5 70.85C51.21 71.17 50.84 71.39 50.43 71.51C50.02 71.63 49.59 71.64 49.18 71.53C48.77 71.42 48.39 71.21 48.09 70.91L46 68.81C45.94 68.74 45.87 68.69 45.79 68.66C45.71 68.62 45.62 68.61 45.53 68.6C45.45 68.6 45.36 68.62 45.28 68.65C45.2 68.69 45.12 68.74 45.06 68.8C45 68.86 44.95 68.94 44.92 69.02C44.88 69.1 44.87 69.19 44.87 69.27C44.87 69.36 44.89 69.45 44.92 69.53C44.95 69.61 45 69.68 45.07 69.75L45.85 70.53C46.03 70.71 46.17 70.92 46.26 71.15C46.36 71.38 46.4 71.63 46.4 71.88C46.4 74.03 44.19 74.25 42.78 72.82L43.43 72.16C44.99 70.6 44 67.88 41.78 67.74C41.88 67.3 41.87 66.85 41.76 66.41C41.65 65.98 41.45 65.58 41.15 65.24C40.86 64.9 40.49 64.64 40.08 64.48C39.67 64.31 39.22 64.24 38.78 64.28C38.82 63.87 38.76 63.45 38.62 63.06C38.48 62.67 38.26 62.32 37.96 62.03C37.67 61.73 37.32 61.51 36.93 61.37C36.55 61.22 36.13 61.17 35.72 61.21C35.95 58.56 32.76 57.09 30.91 58.95L30.45 59.42L29.63 58.25C28.64 56.81 28.46 54.54 27.12 52.61L36.4 43.28L42.12 45.71C41.8 45.82 41.48 45.89 41.31 46.13L36.45 53.35C36.4 53.42 36.37 53.5 36.35 53.59C36.34 53.67 36.34 53.76 36.36 53.85C36.37 53.93 36.41 54.01 36.46 54.08C36.51 54.16 36.57 54.22 36.64 54.27C39.92 56.44 42.87 55.76 45.5 52.21L48.85 51.81C52.04 54.8 55.29 58.01 58.55 60.89L58.55 60.89ZM55.66 42.49C55.53 42.21 55.5 41.9 55.57 41.61C55.64 41.31 55.81 41.05 56.05 40.87L62.35 35.99C62.48 35.89 62.64 35.81 62.81 35.76C62.98 35.72 63.15 35.7 63.33 35.73C63.5 35.75 63.67 35.81 63.82 35.89C63.97 35.98 64.1 36.1 64.2 36.24L74.17 49.31C74.38 49.59 74.48 49.94 74.43 50.29C74.38 50.64 74.2 50.96 73.93 51.17L67.63 56.04C67.42 56.2 67.17 56.3 66.91 56.32C66.65 56.34 66.39 56.28 66.16 56.14C66.16 56.14 65.83 55.87 65.8 55.84C64.33 57.85 62.39 59.4 60.13 60.57C61.94 62.51 60.56 65.91 57.74 65.91C57.48 65.91 57.23 65.88 56.97 65.82C56.99 66.28 56.9 66.73 56.73 67.15C56.56 67.57 56.29 67.95 55.96 68.26C55.63 68.57 55.24 68.8 54.81 68.94C54.38 69.09 53.92 69.14 53.47 69.09C53.49 69.77 53.33 70.45 52.99 71.05C52.65 71.65 52.16 72.14 51.56 72.47C50.97 72.8 50.29 72.96 49.61 72.93C48.92 72.9 48.26 72.68 47.7 72.3C47.3 75.42 43.95 75.88 41.84 73.76C40.25 75.16 37.7 74.14 37.56 71.98C37.13 72.08 36.68 72.07 36.25 71.96C35.81 71.85 35.41 71.64 35.08 71.35C34.75 71.05 34.48 70.68 34.32 70.27C34.15 69.85 34.09 69.41 34.13 68.96C33.72 69 33.3 68.94 32.91 68.8C32.53 68.66 32.17 68.44 31.88 68.14C31.59 67.85 31.37 67.49 31.23 67.1C31.08 66.71 31.03 66.3 31.07 65.89C30.49 65.94 29.91 65.81 29.41 65.52C28.91 65.22 28.51 64.79 28.26 64.26C28.02 63.73 27.94 63.14 28.04 62.57C28.14 61.99 28.41 61.46 28.82 61.05L29.51 60.36C28.31 58.73 28.05 58.4 27.34 56.27C27.03 55.36 26.71 54.41 26.17 53.56C25.87 53.87 25.46 54.04 25.03 54.04C24.6 54.04 24.19 53.87 23.89 53.57L18.15 47.79C17.84 47.49 17.68 47.08 17.68 46.65C17.68 46.22 17.84 45.8 18.15 45.5L29.35 34.23C29.66 33.93 30.07 33.76 30.49 33.76C30.92 33.76 31.33 33.93 31.63 34.23L37.38 40.01C37.67 40.31 37.84 40.71 37.85 41.13C37.85 41.55 37.7 41.96 37.41 42.27L43.14 44.71C43.32 44.78 43.54 45.02 43.67 45.15L48.34 43.47C50.06 42.85 53.76 42.62 55.66 42.49L55.66 42.49ZM64.96 54.74L56.59 43.76C54.21 43.9 51.01 44.08 48.75 44.73L42.28 47.06L37.94 53.51C40.35 54.81 42.57 54.05 44.58 51.23C44.63 51.14 44.7 51.07 44.78 51.02C44.87 50.97 44.96 50.93 45.06 50.92L49 50.45C49.1 50.44 49.2 50.45 49.29 50.49C49.39 50.52 49.48 50.58 49.55 50.65L59.11 59.6C61.48 58.44 63.5 56.86 64.96 54.74L64.96 54.74ZM56.85 41.92L66.82 55L73.12 50.11L63.16 37.04L56.85 41.92L56.85 41.92ZM25.27 46.5C25.37 46.6 25.45 46.73 25.49 46.87C25.53 47.01 25.54 47.15 25.51 47.3C25.48 47.44 25.42 47.57 25.33 47.68C25.24 47.8 25.12 47.88 24.99 47.94C24.85 48 24.71 48.02 24.56 48C24.42 47.99 24.28 47.94 24.16 47.86C24.04 47.78 23.94 47.67 23.87 47.54C23.81 47.41 23.77 47.27 23.77 47.12C23.77 46.95 23.82 46.78 23.92 46.63C24.02 46.49 24.15 46.38 24.31 46.31C24.47 46.24 24.65 46.22 24.82 46.26C24.99 46.29 25.15 46.38 25.27 46.5ZM24.65 44.91C26.6 44.91 27.59 47.3 26.21 48.69C24.82 50.08 22.45 49.09 22.45 47.12C22.45 46.54 22.68 45.97 23.09 45.56C23.51 45.14 24.07 44.91 24.65 44.91ZM68.53 48.84C68.4 48.72 68.25 48.64 68.08 48.6C67.91 48.57 67.73 48.59 67.57 48.65C67.41 48.72 67.27 48.83 67.18 48.98C67.08 49.12 67.03 49.29 67.03 49.47C67.03 49.64 67.08 49.81 67.18 49.96C67.27 50.1 67.41 50.22 67.57 50.28C67.73 50.35 67.91 50.37 68.08 50.33C68.25 50.3 68.4 50.22 68.53 50.09C68.69 49.93 68.78 49.7 68.78 49.47C68.78 49.23 68.69 49.01 68.53 48.84ZM67.91 47.26C67.32 47.26 66.76 47.49 66.35 47.9C65.94 48.32 65.71 48.88 65.71 49.47C65.71 51.43 68.08 52.42 69.46 51.03C70.85 49.64 69.86 47.26 67.91 47.26L67.91 47.26Z" fill="#4057D9" fill-opacity="1.000000" fill-rule="evenodd"/>
				<path id="Vector" d="M49.24 26.43C49.49 26.18 49.63 25.84 49.63 25.49C49.63 25.15 49.49 24.81 49.24 24.56C49 24.31 48.66 24.17 48.32 24.17C48.14 24.17 47.97 24.1 47.85 23.98C47.73 23.86 47.66 23.69 47.66 23.51L47.66 19.51C47.66 19.33 47.73 19.16 47.85 19.04C47.98 18.91 48.15 18.84 48.32 18.84L61.42 18.86C61.6 18.86 61.76 18.93 61.89 19.05C62.01 19.17 62.08 19.34 62.08 19.52L62.07 32.69C62.07 32.87 62 33.03 61.88 33.16C61.75 33.28 61.58 33.35 61.41 33.35L56.83 33.35C56.66 33.35 56.49 33.28 56.37 33.15C56.24 33.03 56.17 32.86 56.17 32.69C56.17 32.34 56.03 32 55.79 31.75C55.54 31.5 55.21 31.37 54.86 31.37C54.51 31.36 54.18 31.5 53.93 31.75C53.69 32 53.55 32.33 53.55 32.68C53.55 32.86 53.48 33.03 53.35 33.15C53.23 33.27 53.06 33.34 52.89 33.34L48.31 33.34C48.13 33.34 47.97 33.27 47.84 33.15C47.72 33.02 47.65 32.85 47.65 32.68L47.65 27.47C47.66 27.3 47.73 27.13 47.85 27.01C47.97 26.88 48.14 26.81 48.31 26.81L48.31 26.81C48.66 26.81 49 26.67 49.24 26.43ZM50.4 23.88C50.75 24.34 50.94 24.91 50.94 25.5C50.94 26.08 50.75 26.65 50.39 27.11C50.04 27.58 49.54 27.91 48.97 28.05L48.97 32.02L52.31 32.02C52.46 31.45 52.79 30.95 53.25 30.59C53.71 30.23 54.28 30.04 54.86 30.04C55.44 30.04 56.01 30.24 56.47 30.6C56.93 30.95 57.26 31.46 57.41 32.02L60.75 32.03L60.76 20.18L48.98 20.17L48.98 22.93C49.54 23.08 50.04 23.41 50.4 23.88ZM43.18 24.67C43.21 24.59 43.25 24.51 43.32 24.44C43.38 24.37 43.45 24.32 43.54 24.28C43.62 24.24 43.71 24.22 43.8 24.22C44.15 24.22 44.49 24.09 44.73 23.84C44.98 23.59 45.12 23.26 45.12 22.91C45.12 22.56 44.98 22.22 44.73 21.97C44.49 21.73 44.15 21.59 43.81 21.59C43.63 21.59 43.47 21.52 43.34 21.39C43.22 21.27 43.15 21.1 43.15 20.92L43.15 18.39L31.37 18.38L31.36 30.23L33.38 30.23C33.55 30.23 33.72 30.3 33.84 30.42C33.97 30.55 34.04 30.72 34.04 30.89C34.04 31.07 34.07 31.24 34.13 31.4C34.2 31.56 34.29 31.71 34.42 31.84C34.54 31.96 34.68 32.06 34.84 32.12C35 32.19 35.17 32.23 35.35 32.23C35.52 32.23 35.69 32.19 35.85 32.13C36.01 32.06 36.16 31.96 36.28 31.84C36.4 31.71 36.5 31.57 36.56 31.41C36.63 31.24 36.66 31.07 36.66 30.9C36.66 30.81 36.67 30.72 36.71 30.64C36.74 30.56 36.79 30.49 36.85 30.43C36.91 30.37 36.98 30.32 37.06 30.29C37.14 30.25 37.23 30.24 37.32 30.24L43.14 30.24L43.14 24.94C43.14 24.85 43.15 24.76 43.18 24.67ZM45.89 21.29C46.24 21.75 46.43 22.32 46.43 22.91C46.43 23.49 46.24 24.06 45.88 24.53C45.53 24.99 45.03 25.32 44.46 25.47L44.46 30.9C44.46 31.08 44.39 31.25 44.26 31.37C44.14 31.5 43.97 31.57 43.8 31.57L37.89 31.56C37.74 32.13 37.41 32.63 36.95 32.99C36.49 33.35 35.93 33.54 35.34 33.54C34.76 33.54 34.2 33.34 33.73 32.98C33.27 32.63 32.95 32.12 32.8 31.56L30.7 31.55C30.52 31.55 30.36 31.48 30.23 31.36C30.11 31.24 30.04 31.07 30.04 30.89L30.05 17.72C30.05 17.54 30.12 17.38 30.24 17.25C30.37 17.13 30.53 17.06 30.71 17.06L43.81 17.07C43.98 17.07 44.15 17.14 44.28 17.26C44.4 17.39 44.47 17.56 44.47 17.73L44.47 20.35C45.03 20.49 45.53 20.83 45.89 21.29ZM30.7 35.17C30.64 35.12 30.57 35.09 30.49 35.09C30.42 35.09 30.34 35.12 30.29 35.17L19.08 46.44C19.03 46.49 19 46.57 19 46.65C19 46.72 19.03 46.8 19.08 46.85L24.82 52.63C24.88 52.68 24.95 52.71 25.03 52.71C25.11 52.71 25.18 52.68 25.23 52.63L36.44 41.36C36.5 41.3 36.53 41.23 36.53 41.15C36.53 41.08 36.5 41 36.44 40.95L36.44 40.95L30.7 35.17ZM31.85 59.89L29.76 61.99C28.83 62.93 29.47 64.57 30.82 64.57C31.02 64.57 31.21 64.53 31.39 64.45C31.58 64.38 31.74 64.27 31.88 64.13L33.97 62.03C34.11 61.88 34.22 61.72 34.3 61.53C34.37 61.35 34.41 61.16 34.41 60.96L34.41 60.96C34.41 59.6 32.78 58.96 31.85 59.89ZM37.47 64.03C37.47 64.43 37.31 64.82 37.03 65.1L34.94 67.2C34.8 67.34 34.64 67.45 34.45 67.53C34.27 67.6 34.08 67.64 33.88 67.64C32.53 67.64 31.89 66 32.82 65.07L34.91 62.97C35.19 62.68 35.57 62.53 35.97 62.53C36.37 62.53 36.75 62.68 37.03 62.97C37.31 63.25 37.47 63.63 37.47 64.03ZM39.03 65.6C38.63 65.6 38.25 65.76 37.97 66.04L35.87 68.14C34.95 69.08 35.59 70.72 36.94 70.72C37.61 70.72 37.9 70.37 38.31 69.97L40.09 68.18C40.37 67.89 40.53 67.51 40.53 67.11C40.53 66.71 40.37 66.32 40.09 66.04L40.09 66.04C39.81 65.76 39.42 65.6 39.03 65.6ZM42.77 70.81C42.71 70.97 42.62 71.11 42.5 71.22L41.03 72.7C40.79 72.94 40.47 73.07 40.14 73.07C39.8 73.07 39.48 72.93 39.25 72.7C39.01 72.46 38.88 72.14 38.88 71.8C38.88 71.47 39.01 71.14 39.24 70.9L40.71 69.43C40.89 69.25 41.11 69.13 41.36 69.08C41.6 69.03 41.86 69.06 42.09 69.16C42.32 69.25 42.51 69.41 42.65 69.62C42.79 69.83 42.87 70.08 42.87 70.33L42.87 70.33C42.87 70.49 42.83 70.66 42.77 70.81ZM59.63 62.69C59.62 64.39 57.59 65.21 56.42 64.04L54.4 62.01C54.28 61.88 54.11 61.81 53.93 61.81C53.76 61.81 53.59 61.88 53.47 62.01C53.34 62.13 53.27 62.3 53.27 62.48C53.27 62.65 53.34 62.82 53.47 62.95L55.11 64.6C55.28 64.77 55.42 64.98 55.51 65.21C55.6 65.43 55.65 65.67 55.65 65.92C55.65 67.59 53.64 68.39 52.49 67.23L50.58 65.31C50.52 65.25 50.45 65.2 50.37 65.17C50.29 65.13 50.2 65.12 50.11 65.12C50.03 65.12 49.94 65.13 49.86 65.17C49.78 65.2 49.71 65.25 49.65 65.31C49.59 65.37 49.54 65.45 49.5 65.53C49.47 65.61 49.45 65.69 49.45 65.78C49.45 65.87 49.47 65.95 49.5 66.03C49.54 66.12 49.59 66.19 49.65 66.25L51.56 68.17C51.72 68.34 51.9 68.48 52.09 68.6C52.17 68.98 52.17 69.37 52.09 69.74C51.99 70.16 51.79 70.54 51.5 70.85C51.21 71.17 50.84 71.39 50.43 71.51C50.02 71.63 49.59 71.64 49.18 71.53C48.77 71.42 48.39 71.21 48.09 70.91L46 68.81C45.94 68.74 45.87 68.69 45.79 68.66C45.71 68.62 45.62 68.61 45.53 68.6C45.45 68.6 45.36 68.62 45.28 68.65C45.2 68.69 45.12 68.74 45.06 68.8C45 68.86 44.95 68.94 44.92 69.02C44.88 69.1 44.87 69.19 44.87 69.27C44.87 69.36 44.89 69.45 44.92 69.53C44.95 69.61 45 69.68 45.07 69.75L45.85 70.53C46.03 70.71 46.17 70.92 46.26 71.15C46.36 71.38 46.4 71.63 46.4 71.88C46.4 74.03 44.19 74.25 42.78 72.82L43.43 72.16C44.99 70.6 44 67.88 41.78 67.74C41.88 67.3 41.87 66.85 41.76 66.41C41.65 65.98 41.45 65.58 41.15 65.24C40.86 64.9 40.49 64.64 40.08 64.48C39.67 64.31 39.22 64.24 38.78 64.28C38.82 63.87 38.76 63.45 38.62 63.06C38.48 62.67 38.26 62.32 37.96 62.03C37.67 61.73 37.32 61.51 36.93 61.37C36.55 61.22 36.13 61.17 35.72 61.21C35.95 58.56 32.76 57.09 30.91 58.95L30.45 59.42L29.63 58.25C28.64 56.81 28.46 54.54 27.12 52.61L36.4 43.28L42.12 45.71C41.8 45.82 41.48 45.89 41.31 46.13L36.45 53.35C36.4 53.42 36.37 53.5 36.35 53.59C36.34 53.67 36.34 53.76 36.36 53.85C36.37 53.93 36.41 54.01 36.46 54.08C36.51 54.16 36.57 54.22 36.64 54.27C39.92 56.44 42.87 55.76 45.5 52.21L48.85 51.81C52.04 54.8 55.29 58.01 58.55 60.89L58.55 60.89C59.12 61.43 59.63 61.79 59.63 62.69ZM55.57 41.61C55.64 41.31 55.81 41.05 56.05 40.87L62.35 35.99C62.48 35.89 62.64 35.81 62.81 35.76C62.98 35.72 63.15 35.7 63.33 35.73C63.5 35.75 63.67 35.81 63.82 35.89C63.97 35.98 64.1 36.1 64.2 36.24L74.17 49.31C74.38 49.59 74.48 49.94 74.43 50.29C74.38 50.64 74.2 50.96 73.93 51.17L67.63 56.04C67.42 56.2 67.17 56.3 66.91 56.32C66.65 56.34 66.39 56.28 66.16 56.14C66.16 56.14 65.83 55.87 65.8 55.84C64.33 57.85 62.39 59.4 60.13 60.57C61.94 62.51 60.56 65.91 57.74 65.91C57.48 65.91 57.23 65.88 56.97 65.82C56.99 66.28 56.9 66.73 56.73 67.15C56.56 67.57 56.29 67.95 55.96 68.26C55.63 68.57 55.24 68.8 54.81 68.94C54.38 69.09 53.92 69.14 53.47 69.09C53.49 69.77 53.33 70.45 52.99 71.05C52.65 71.65 52.16 72.14 51.56 72.47C50.97 72.8 50.29 72.96 49.61 72.93C48.92 72.9 48.26 72.68 47.7 72.3C47.3 75.42 43.95 75.88 41.84 73.76C40.25 75.16 37.7 74.14 37.56 71.98C37.13 72.08 36.68 72.07 36.25 71.96C35.81 71.85 35.41 71.64 35.08 71.35C34.75 71.05 34.48 70.68 34.32 70.27C34.15 69.85 34.09 69.41 34.13 68.96C33.72 69 33.3 68.94 32.91 68.8C32.53 68.66 32.17 68.44 31.88 68.14C31.59 67.85 31.37 67.49 31.23 67.1C31.08 66.71 31.03 66.3 31.07 65.89C30.49 65.94 29.91 65.81 29.41 65.52C28.91 65.22 28.51 64.79 28.26 64.26C28.02 63.73 27.94 63.14 28.04 62.57C28.14 61.99 28.41 61.46 28.82 61.05L29.51 60.36C28.31 58.73 28.05 58.4 27.34 56.27C27.03 55.36 26.71 54.41 26.17 53.56C25.87 53.87 25.46 54.04 25.03 54.04C24.6 54.04 24.19 53.87 23.89 53.57L18.15 47.79C17.84 47.49 17.68 47.08 17.68 46.65C17.68 46.22 17.84 45.8 18.15 45.5L29.35 34.23C29.66 33.93 30.07 33.76 30.49 33.76C30.92 33.76 31.33 33.93 31.63 34.23L37.38 40.01C37.67 40.31 37.84 40.71 37.85 41.13C37.85 41.55 37.7 41.96 37.41 42.27L43.14 44.71C43.32 44.78 43.54 45.02 43.67 45.15L48.34 43.47C50.06 42.85 53.76 42.62 55.66 42.49L55.66 42.49C55.53 42.21 55.5 41.9 55.57 41.61ZM56.59 43.76C54.21 43.9 51.01 44.08 48.75 44.73L42.28 47.06L37.94 53.51C40.35 54.81 42.57 54.05 44.58 51.23C44.63 51.14 44.7 51.07 44.78 51.02C44.87 50.97 44.96 50.93 45.06 50.92L49 50.45C49.1 50.44 49.2 50.45 49.29 50.49C49.39 50.52 49.48 50.58 49.55 50.65L59.11 59.6C61.48 58.44 63.5 56.86 64.96 54.74L64.96 54.74L56.59 43.76ZM66.82 55L73.12 50.11L63.16 37.04L56.85 41.92L56.85 41.92L66.82 55ZM25.49 46.87C25.53 47.01 25.54 47.15 25.51 47.3C25.48 47.44 25.42 47.57 25.33 47.68C25.24 47.8 25.12 47.88 24.99 47.94C24.85 48 24.71 48.02 24.56 48C24.42 47.99 24.28 47.94 24.16 47.86C24.04 47.78 23.94 47.67 23.87 47.54C23.81 47.41 23.77 47.27 23.77 47.12C23.77 46.95 23.82 46.78 23.92 46.63C24.02 46.49 24.15 46.38 24.31 46.31C24.47 46.24 24.65 46.22 24.82 46.26C24.99 46.29 25.15 46.38 25.27 46.5C25.37 46.6 25.45 46.73 25.49 46.87ZM26.21 48.69C24.82 50.08 22.45 49.09 22.45 47.12C22.45 46.54 22.68 45.97 23.09 45.56C23.51 45.14 24.07 44.91 24.65 44.91C26.6 44.91 27.59 47.3 26.21 48.69ZM68.08 48.6C67.91 48.57 67.73 48.59 67.57 48.65C67.41 48.72 67.27 48.83 67.18 48.98C67.08 49.12 67.03 49.29 67.03 49.47C67.03 49.64 67.08 49.81 67.18 49.96C67.27 50.1 67.41 50.22 67.57 50.28C67.73 50.35 67.91 50.37 68.08 50.33C68.25 50.3 68.4 50.22 68.53 50.09C68.69 49.93 68.78 49.7 68.78 49.47C68.78 49.23 68.69 49.01 68.53 48.84C68.4 48.72 68.25 48.64 68.08 48.6ZM66.35 47.9C65.94 48.32 65.71 48.88 65.71 49.47C65.71 51.43 68.08 52.42 69.46 51.03C70.85 49.64 69.86 47.26 67.91 47.26L67.91 47.26C67.32 47.26 66.76 47.49 66.35 47.9Z" stroke="#4057D9" stroke-opacity="1.000000" stroke-width="0.500000"/>
			</g>
		</g>
	</g>
	<rect id="free-icon-chat-134808 2" rx="8.500000" width="71.126579" height="71.126579" transform="translate(10.500000 10.500000)" stroke="#4057D9" stroke-opacity="0" stroke-width="1.000000"/>
	<rect id="free-icon-chat-134808 2" rx="8.500000" width="71.126579" height="71.126579" transform="translate(10.500000 10.500000)" stroke="#FFFFFF" stroke-opacity="0.100000" stroke-width="1.000000"/>
</svg>
