<svg width="16" height="15" viewBox="0 0 16 15" fill="none" xmlns="http://www.w3.org/2000/svg">
<path d="M10.423 13.5203L10.1034 13.9287L10.5917 13.754C11.6602 13.3715 12.6035 12.7249 13.343 11.8929L13.5649 11.6433H13.2309H11.5244H11.4205L11.384 11.7405C11.1458 12.3743 10.8306 12.9994 10.423 13.5203ZM13.8832 11.0753H13.966L14.0101 11.0052C14.5841 10.0929 14.9439 9.03291 15.0188 7.89633L15.0293 7.73647H14.8691H12.2435H12.0979L12.0935 7.88201C12.0619 8.94562 11.9131 9.96653 11.6604 10.8855L11.6082 11.0753H11.805H13.8832ZM14.0101 3.8995L13.966 3.82937H13.8832H11.805H11.6082L11.6604 4.01915C11.9131 4.93816 12.0619 5.95908 12.0935 7.02268L12.0979 7.16823H12.2435H14.8691H15.0293L15.0188 7.00837C14.9439 5.87178 14.5841 4.8118 14.0101 3.8995ZM13.2309 3.26113H13.565L13.343 3.01146C12.6035 2.17978 11.6602 1.53315 10.5916 1.15073L10.1034 0.975983L10.423 1.3844C10.8307 1.90548 11.1459 2.53066 11.3839 3.16391L11.4205 3.26113H11.5243H13.2309ZM8.82537 0.843781L8.62722 0.77662V0.985842V3.11113V3.26113H8.77722H10.5898H10.8165L10.7279 3.05251C10.55 2.63343 10.3039 2.16198 9.99064 1.75632C9.67845 1.35209 9.29041 1.0014 8.82537 0.843781ZM8.77722 3.82937H8.62722V3.97937V7.01823V7.16823H8.77722H11.3749H11.5297L11.5248 7.01352C11.4903 5.91392 11.3262 4.86393 11.0459 3.936L11.0137 3.82937H10.9023H8.77722ZM8.77722 7.73618H8.62722V7.88618V10.9253V11.0753H8.77722H10.9023H11.0137L11.0459 10.9687C11.3262 10.0408 11.4903 8.99078 11.5248 7.89089L11.5297 7.73618H11.3749H8.77722ZM8.77722 11.6433H8.62722V11.7933V13.9189V14.1281L8.82536 14.0609C9.29004 13.9034 9.67794 13.5531 9.99015 13.149C10.3034 12.7434 10.5497 12.2718 10.7279 11.8519L10.8165 11.6433H10.5898H8.77722ZM3.45529 11.6436H3.1212L3.34319 11.8932C4.08267 12.7249 5.02601 13.3716 6.09457 13.754L6.58282 13.9287L6.26324 13.5203C5.85547 12.9992 5.54033 12.374 5.30226 11.7408L5.26571 11.6436H5.16185H3.45529ZM7.86082 14.0609L8.05897 14.1281V13.9189V11.7936V11.6436H7.90897H6.09634H5.8697L5.95827 11.8522C6.13651 12.272 6.38278 12.7436 6.69608 13.1491C7.00829 13.5531 7.39616 13.9034 7.86082 14.0609ZM7.90897 11.0753H8.05897V10.9253V7.88647V7.73647H7.90897H5.31127H5.15649L5.16135 7.89118C5.19589 8.99078 5.36002 10.0408 5.6403 10.9687L5.6725 11.0753H5.78389H7.90897ZM7.90897 7.16823H8.05897V7.01823V3.97937V3.82937H7.90897H5.78389H5.6725L5.6403 3.936C5.36002 4.86393 5.19589 5.91392 5.16135 7.01352L5.15649 7.16823H5.31127H7.90897ZM8.05897 0.985842V0.776621L7.86082 0.84378C7.39613 1.00128 7.00825 1.35159 6.69605 1.75568C6.38275 2.16119 6.1365 2.63271 5.95827 3.05251L5.8697 3.26113H6.09634H7.90897H8.05897V3.11113V0.985842ZM6.26321 1.3844L6.58282 0.975987L6.09454 1.15073C5.02601 1.53312 4.08267 2.17978 3.34319 3.01146L3.1212 3.26113H3.45529H5.16182H5.26568L5.30223 3.16392C5.54041 2.53038 5.85556 1.90531 6.26321 1.3844ZM2.80303 3.82908H2.72017L2.67606 3.89922C2.1021 4.8118 1.74226 5.87178 1.66741 7.00837L1.65688 7.16823H1.81709H4.44271H4.58832L4.59265 7.02268C4.62428 5.95908 4.77304 4.93816 5.02578 4.01885L5.07795 3.82908H4.88115H2.80303ZM1.81709 7.73647H1.65688L1.66741 7.89633C1.74226 9.03291 2.1021 10.0929 2.67607 11.0052L2.72019 11.0753H2.80303H4.88115H5.07797L5.02578 10.8855C4.77304 9.96653 4.62428 8.94562 4.59265 7.88201L4.58832 7.73647H4.44271H1.81709ZM15.6021 7.45235C15.6021 11.4488 12.3398 14.7114 8.34309 14.7114C4.34661 14.7114 1.08408 11.4491 1.08408 7.45235C1.08408 3.45586 4.34638 0.193335 8.34309 0.193335C12.3396 0.193335 15.6021 3.45561 15.6021 7.45235Z" fill="#A3A3C5" stroke="#0E1A31" stroke-width="0.3"/>
</svg>
