<svg width="16" height="17" viewBox="0 0 16 17" fill="none" xmlns="http://www.w3.org/2000/svg">
<path d="M5.04799 13.4071H7.26657V14.1414H5.04799H4.79799V14.3914V16.4865H4.0637V14.3914V14.1414H3.8137H1.59513V13.4071H3.8137H4.0637V13.1571V11.8785V11.6619L3.84926 11.631C1.87966 11.3481 0.36084 9.64902 0.36084 7.60278C0.36084 5.3588 2.18687 3.53277 4.43085 3.53277C5.29496 3.53277 6.09646 3.80349 6.75621 4.26458L6.89942 4.36466L7.04264 4.26458C7.70238 3.80349 8.50389 3.53277 9.368 3.53277C10.2773 3.53277 11.1174 3.83236 11.7958 4.33827L11.9724 4.46993L12.1252 4.31136L14.0204 2.34542L14.4287 1.92191H13.8404H11.2226V1.18762H15.6597V5.62477H14.9254V3.08414V2.4646L14.4955 2.91063L12.6402 4.83513L12.4922 4.9887L12.6205 5.15907C13.1337 5.84026 13.438 6.68641 13.438 7.60278C13.438 9.84676 11.612 11.6728 9.368 11.6728C8.50389 11.6728 7.70238 11.4021 7.04264 10.941L6.89943 10.8409L6.75622 10.941C6.2471 11.2968 5.65366 11.5389 5.01244 11.631L4.79799 11.6619V11.8785V13.1571V13.4071H5.04799ZM6.69953 9.60231L6.89942 9.86845L7.09932 9.60231C7.51796 9.04493 7.76657 8.35212 7.76657 7.60278C7.76657 6.85344 7.51796 6.16062 7.09932 5.60324L6.89942 5.3371L6.69953 5.60324C6.28089 6.16062 6.03228 6.85344 6.03228 7.60278C6.03228 8.35212 6.28089 9.04493 6.69953 9.60231ZM6.17113 5.08679L6.34968 4.86044L6.10033 4.71574C5.60897 4.43058 5.0384 4.26706 4.43085 4.26706C2.59128 4.26706 1.09513 5.76324 1.09513 7.60278C1.09513 9.44231 2.59128 10.9385 4.43085 10.9385C5.03839 10.9385 5.60897 10.775 6.10034 10.4898L6.34967 10.3451L6.17113 10.1188C5.62436 9.4256 5.29799 8.5518 5.29799 7.60278C5.29799 6.65376 5.62436 5.77996 6.17113 5.08679ZM7.62772 10.1188L7.44917 10.3451L7.6985 10.4898C8.18988 10.775 8.76046 10.9385 9.368 10.9385C11.2076 10.9385 12.7037 9.44231 12.7037 7.60278C12.7037 5.76324 11.2076 4.26706 9.368 4.26706C8.76045 4.26706 8.18988 4.43058 7.69851 4.71574L7.44917 4.86044L7.62772 5.08679C8.17449 5.77996 8.50086 6.65376 8.50086 7.60278C8.50086 8.5518 8.17449 9.4256 7.62772 10.1188Z" fill="#A3A3C5" stroke="#0E1A31" stroke-width="0.5"/>
</svg>
