<svg width="112.000000" height="112.000000" viewBox="0 0 112 112" fill="none" xmlns="http://www.w3.org/2000/svg" xmlns:xlink="http://www.w3.org/1999/xlink">
	<desc>
			Created with Pixso.
	</desc>
	<defs>
		<filter id="filter_234_2460_dd" x="-0.600098" y="-0.600098" width="112.200195" height="112.200195" filterUnits="userSpaceOnUse" color-interpolation-filters="sRGB">
			<feFlood flood-opacity="0" result="BackgroundImageFix"/>
			<feGaussianBlur in="BackgroundImage" stdDeviation="14.8"/>
			<feComposite in2="SourceAlpha" operator="in" result="effect_backgroundBlur_1"/>
			<feColorMatrix in="SourceAlpha" type="matrix" values="0 0 0 0 0 0 0 0 0 0 0 0 0 0 0 0 0 0 127 0" result="hardAlpha"/>
			<feOffset dx="0" dy="0"/>
			<feGaussianBlur stdDeviation="3.53333"/>
			<feComposite in2="hardAlpha" operator="out" k2="-1" k3="1"/>
			<feColorMatrix type="matrix" values="0 0 0 0 0.25098 0 0 0 0 0.34118 0 0 0 0 0.85098 0 0 0 0.7 0"/>
			<feBlend mode="normal" in2="effect_backgroundBlur_1" result="effect_dropShadow_2"/>
			<feBlend mode="normal" in="SourceGraphic" in2="effect_dropShadow_2" result="shape"/>
		</filter>
		<clipPath id="clip234_2461">
			<rect id="free-icon-award-11239533 1" width="63.000000" height="63.000000" transform="translate(26.500000 24.000000)" fill="white" fill-opacity="0"/>
		</clipPath>
		<clipPath id="clip234_2460">
			<rect id="free-icon-chat-134808 4" rx="8.500000" width="90.000000" height="90.000000" transform="translate(10.500000 10.500000)" fill="white" fill-opacity="0"/>
		</clipPath>
	</defs>
	<g filter="url(#filter_234_2460_dd)">
		<rect id="free-icon-chat-134808 4" rx="8.500000" width="90.000000" height="90.000000" transform="translate(10.500000 10.500000)" fill="#FFFFFF" fill-opacity="0.050000"/>
		<rect id="free-icon-chat-134808 4" rx="8.500000" width="90.000000" height="90.000000" transform="translate(10.500000 10.500000)" fill="#071836" fill-opacity="0.500000"/>
		<g clip-path="url(#clip234_2460)">
			<rect id="free-icon-award-11239533 1" width="63.000000" height="63.000000" transform="translate(26.500000 24.000000)" fill="#FFFFFF" fill-opacity="0"/>
			<g clip-path="url(#clip234_2461)">
				<path id="Vector" d="M76.75 87L32.71 87C31.58 87 30.65 86.07 30.65 84.95L30.65 32.43C30.65 31.3 31.58 30.38 32.71 30.38L44.37 30.38C44.9 30.38 45.33 30.81 45.33 31.34C45.33 31.87 44.9 32.29 44.37 32.29L32.71 32.29C32.63 32.29 32.56 32.35 32.56 32.44L32.56 84.95C32.56 85.03 32.62 85.1 32.71 85.1L76.74 85.1C76.83 85.1 76.89 85.04 76.89 84.95L76.89 75.97C76.89 75.44 77.31 75.02 77.84 75.02C78.37 75.02 78.8 75.44 78.8 75.97L78.8 84.95C78.8 86.07 77.87 87 76.75 87Z" fill="#4057D9" fill-opacity="1.000000" fill-rule="nonzero"/>
				<path id="Vector" d="M76.75 87L32.71 87C31.58 87 30.65 86.07 30.65 84.95L30.65 32.43C30.65 31.3 31.58 30.38 32.71 30.38L44.37 30.38C44.9 30.38 45.33 30.81 45.33 31.34C45.33 31.87 44.9 32.29 44.37 32.29L32.71 32.29C32.63 32.29 32.56 32.35 32.56 32.44L32.56 84.95C32.56 85.03 32.62 85.1 32.71 85.1L76.74 85.1C76.83 85.1 76.89 85.04 76.89 84.95L76.89 75.97C76.89 75.44 77.31 75.02 77.84 75.02C78.37 75.02 78.8 75.44 78.8 75.97L78.8 84.95C78.8 86.07 77.87 87 76.75 87ZM76.75 86.8L32.71 86.8Q32.51 86.8 32.32 86.76Q32.15 86.72 31.99 86.65Q31.84 86.58 31.7 86.5Q31.54 86.39 31.4 86.25Q31.25 86.1 31.14 85.94Q31.06 85.81 31 85.66Q30.92 85.49 30.89 85.31Q30.85 85.13 30.85 84.95L30.85 32.43Q30.85 32.22 30.89 32.03Q30.93 31.87 31 31.71Q31.06 31.56 31.15 31.43Q31.25 31.27 31.4 31.12Q31.53 30.99 31.69 30.89Q31.83 30.8 31.99 30.73Q32.14 30.66 32.3 30.63Q32.5 30.58 32.71 30.58L44.37 30.58Q44.54 30.58 44.68 30.65Q44.8 30.7 44.91 30.8Q45.01 30.91 45.07 31.03Q45.13 31.17 45.13 31.34Q45.13 31.51 45.07 31.65Q45.01 31.77 44.91 31.87Q44.8 31.98 44.68 32.03Q44.54 32.09 44.37 32.09L32.71 32.09Q32.63 32.09 32.57 32.12Q32.51 32.14 32.47 32.19Q32.42 32.24 32.39 32.29Q32.36 32.36 32.36 32.44L32.36 84.95Q32.36 85.02 32.39 85.08Q32.41 85.14 32.46 85.19Q32.5 85.24 32.56 85.26Q32.63 85.3 32.71 85.3L76.74 85.3Q76.83 85.3 76.9 85.26Q76.95 85.24 76.99 85.2Q77.03 85.16 77.05 85.11Q77.09 85.04 77.09 84.95L77.09 75.97Q77.09 75.8 77.15 75.66Q77.2 75.54 77.31 75.43Q77.41 75.33 77.53 75.28Q77.67 75.22 77.84 75.22Q78.01 75.22 78.15 75.28Q78.27 75.33 78.38 75.43Q78.48 75.54 78.53 75.66Q78.6 75.8 78.6 75.97L78.6 84.95Q78.6 85.13 78.56 85.31Q78.52 85.49 78.45 85.66Q78.39 85.81 78.31 85.94Q78.2 86.11 78.05 86.25Q77.91 86.4 77.74 86.5Q77.61 86.59 77.46 86.65Q77.29 86.72 77.11 86.76Q76.93 86.8 76.75 86.8Z" fill="#4057D9" fill-opacity="1.000000" fill-rule="evenodd"/>
				<path id="Vector" d="M77.84 54.1C77.31 54.1 76.89 53.67 76.89 53.14L76.89 32.43C76.89 32.34 76.83 32.28 76.74 32.28L65.08 32.28C64.55 32.28 64.13 31.86 64.13 31.33C64.13 30.8 64.55 30.37 65.08 30.37L76.75 30.37C77.88 30.37 78.81 31.3 78.81 32.42L78.81 53.13C78.8 53.67 78.37 54.1 77.84 54.1Z" fill="#4057D9" fill-opacity="1.000000" fill-rule="nonzero"/>
				<path id="Vector" d="M77.84 54.1C77.31 54.1 76.89 53.67 76.89 53.14L76.89 32.43C76.89 32.34 76.83 32.28 76.74 32.28L65.08 32.28C64.55 32.28 64.13 31.86 64.13 31.33C64.13 30.8 64.55 30.37 65.08 30.37L76.75 30.37C77.88 30.37 78.81 31.3 78.81 32.42L78.81 53.13C78.8 53.67 78.37 54.1 77.84 54.1ZM77.15 53.45Q77.09 53.31 77.09 53.14L77.09 32.43Q77.09 32.34 77.05 32.27Q77.03 32.22 76.99 32.18Q76.95 32.14 76.9 32.12Q76.83 32.08 76.74 32.08L65.08 32.08Q64.92 32.08 64.78 32.02Q64.65 31.97 64.55 31.86Q64.44 31.76 64.39 31.64Q64.33 31.5 64.33 31.33Q64.33 31.16 64.39 31.02Q64.44 30.9 64.55 30.79Q64.65 30.69 64.78 30.64Q64.92 30.57 65.08 30.57L76.75 30.57Q76.95 30.57 77.13 30.61Q77.31 30.65 77.47 30.72Q77.62 30.78 77.76 30.87Q77.92 30.98 78.06 31.12Q78.21 31.26 78.32 31.43Q78.4 31.56 78.46 31.71Q78.53 31.88 78.57 32.05Q78.61 32.23 78.61 32.42L78.61 53.13Q78.6 53.31 78.54 53.45Q78.48 53.57 78.38 53.68Q78.27 53.78 78.14 53.84Q78.01 53.9 77.84 53.9Q77.67 53.9 77.53 53.84Q77.41 53.78 77.31 53.68Q77.2 53.57 77.15 53.45Z" fill="#4057D9" fill-opacity="1.000000" fill-rule="evenodd"/>
				<path id="Vector" d="M73.28 82.79L36.16 82.79C34.98 82.79 34.02 81.83 34.02 80.65L34.02 36.73C34.02 35.55 34.98 34.59 36.16 34.59L44.37 34.59C44.9 34.59 45.33 35.01 45.33 35.54C45.33 36.07 44.9 36.5 44.37 36.5L36.16 36.5C36.03 36.5 35.93 36.6 35.93 36.73L35.93 80.66C35.93 80.78 36.03 80.89 36.16 80.89L73.28 80.89C73.41 80.89 73.52 80.78 73.52 80.66L73.52 75.99C73.52 75.46 73.94 75.03 74.47 75.03C75.01 75.03 75.43 75.46 75.43 75.99L75.43 80.66C75.44 81.83 74.47 82.79 73.28 82.79Z" fill="#4057D9" fill-opacity="1.000000" fill-rule="nonzero"/>
				<path id="Vector" d="M73.28 82.79L36.16 82.79C34.98 82.79 34.02 81.83 34.02 80.65L34.02 36.73C34.02 35.55 34.98 34.59 36.16 34.59L44.37 34.59C44.9 34.59 45.33 35.01 45.33 35.54C45.33 36.07 44.9 36.5 44.37 36.5L36.16 36.5C36.03 36.5 35.93 36.6 35.93 36.73L35.93 80.66C35.93 80.78 36.03 80.89 36.16 80.89L73.28 80.89C73.41 80.89 73.52 80.78 73.52 80.66L73.52 75.99C73.52 75.46 73.94 75.03 74.47 75.03C75.01 75.03 75.43 75.46 75.43 75.99L75.43 80.66C75.44 81.83 74.47 82.79 73.28 82.79ZM73.28 82.59L36.16 82.59Q35.95 82.59 35.75 82.55Q35.58 82.51 35.41 82.44Q35.25 82.37 35.11 82.28Q34.94 82.17 34.79 82.02Q34.64 81.87 34.53 81.7Q34.44 81.56 34.37 81.4Q34.3 81.23 34.26 81.06Q34.22 80.86 34.22 80.65L34.22 36.73Q34.22 36.52 34.26 36.32Q34.3 36.15 34.37 35.98Q34.44 35.82 34.53 35.68Q34.64 35.51 34.79 35.36Q34.94 35.21 35.11 35.1Q35.25 35.01 35.41 34.94Q35.58 34.87 35.75 34.83Q35.95 34.79 36.16 34.79L44.37 34.79Q44.54 34.79 44.68 34.85Q44.8 34.9 44.91 35.01Q45.01 35.11 45.07 35.23Q45.13 35.37 45.13 35.54Q45.13 35.71 45.07 35.85Q45.01 35.97 44.91 36.08Q44.8 36.18 44.68 36.24Q44.54 36.3 44.37 36.3L36.16 36.3Q36.08 36.3 36.01 36.32Q35.92 36.36 35.86 36.43Q35.79 36.49 35.75 36.58Q35.73 36.65 35.73 36.73L35.73 80.66Q35.73 80.74 35.75 80.81Q35.79 80.89 35.86 80.96Q35.92 81.03 36.01 81.06Q36.08 81.09 36.16 81.09L73.28 81.09Q73.37 81.09 73.44 81.06Q73.52 81.03 73.59 80.96Q73.66 80.89 73.69 80.81Q73.72 80.74 73.72 80.66L73.72 75.99Q73.72 75.82 73.78 75.68Q73.84 75.56 73.94 75.45Q74.04 75.35 74.17 75.3Q74.31 75.23 74.47 75.23Q74.64 75.23 74.78 75.3Q74.91 75.35 75.01 75.45Q75.11 75.56 75.17 75.68Q75.23 75.82 75.23 75.99L75.23 80.66Q75.23 80.87 75.19 81.07Q75.15 81.24 75.08 81.41Q75.02 81.55 74.94 81.69Q74.82 81.87 74.67 82.02Q74.53 82.16 74.37 82.27Q74.22 82.37 74.04 82.44Q73.88 82.51 73.72 82.54Q73.51 82.59 73.28 82.59Z" fill="#4057D9" fill-opacity="1.000000" fill-rule="evenodd"/>
				<path id="Vector" d="M74.48 54.08C73.95 54.08 73.53 53.65 73.53 53.12L73.53 36.73C73.53 36.6 73.42 36.5 73.29 36.5L65.08 36.5C64.55 36.5 64.13 36.07 64.13 35.54C64.13 35.01 64.55 34.59 65.08 34.59L73.29 34.59C74.47 34.59 75.44 35.55 75.44 36.73L75.44 53.13C75.44 53.65 75.01 54.08 74.48 54.08Z" fill="#4057D9" fill-opacity="1.000000" fill-rule="nonzero"/>
				<path id="Vector" d="M74.48 54.08C73.95 54.08 73.53 53.65 73.53 53.12L73.53 36.73C73.53 36.6 73.42 36.5 73.29 36.5L65.08 36.5C64.55 36.5 64.13 36.07 64.13 35.54C64.13 35.01 64.55 34.59 65.08 34.59L73.29 34.59C74.47 34.59 75.44 35.55 75.44 36.73L75.44 53.13C75.44 53.65 75.01 54.08 74.48 54.08ZM73.79 53.43Q73.73 53.29 73.73 53.12L73.73 36.73Q73.73 36.65 73.7 36.58Q73.67 36.49 73.6 36.43Q73.53 36.36 73.45 36.32Q73.38 36.3 73.29 36.3L65.08 36.3Q64.92 36.3 64.78 36.24Q64.65 36.18 64.55 36.08Q64.44 35.97 64.39 35.85Q64.33 35.71 64.33 35.54Q64.33 35.37 64.39 35.23Q64.44 35.11 64.55 35.01Q64.65 34.9 64.78 34.85Q64.92 34.79 65.08 34.79L73.29 34.79Q73.5 34.79 73.7 34.83Q73.88 34.87 74.05 34.94Q74.21 35.01 74.35 35.1Q74.52 35.21 74.67 35.36Q74.82 35.51 74.93 35.68Q75.02 35.82 75.09 35.98Q75.16 36.15 75.2 36.32Q75.24 36.52 75.24 36.73L75.24 53.13Q75.24 53.28 75.19 53.4Q75.13 53.54 75.02 53.66Q74.9 53.77 74.77 53.83Q74.64 53.88 74.48 53.88Q74.32 53.88 74.18 53.82Q74.05 53.76 73.95 53.66Q73.85 53.55 73.79 53.43Z" fill="#4057D9" fill-opacity="1.000000" fill-rule="evenodd"/>
				<path id="Vector" d="M65.07 38.24L44.37 38.24C43.84 38.24 43.42 37.82 43.42 37.28L43.42 31.01C43.42 29.58 44.54 28.41 45.93 28.41L49.07 28.41C49.81 25.81 52.07 24 54.73 24C55.77 24 56.81 24.29 57.7 24.84C59.01 25.65 59.96 26.92 60.38 28.41L63.53 28.41C64.06 28.41 64.57 28.58 65 28.91C65.64 29.38 66.04 30.18 66.04 31.01L66.04 37.28C66.03 37.82 65.61 38.24 65.07 38.24ZM45.33 36.33L64.12 36.33L64.12 31.01C64.12 30.78 64.01 30.56 63.84 30.44C63.74 30.36 63.63 30.32 63.51 30.32L59.61 30.32C59.14 30.32 58.73 29.98 58.67 29.51C58.47 28.22 57.76 27.12 56.71 26.47C56.11 26.1 55.43 25.9 54.74 25.9C52.77 25.9 51.12 27.42 50.8 29.51C50.73 29.98 50.33 30.32 49.86 30.32L45.94 30.32C45.6 30.32 45.34 30.64 45.34 31.01L45.34 36.33L45.33 36.33Z" fill="#4057D9" fill-opacity="1.000000" fill-rule="nonzero"/>
				<path id="Vector" d="M49.07 28.41L45.93 28.41C44.54 28.41 43.42 29.58 43.42 31.01L43.42 37.28C43.42 37.82 43.84 38.24 44.37 38.24L65.07 38.24C65.61 38.24 66.03 37.82 66.04 37.28L66.04 31.01C66.04 30.18 65.64 29.38 65 28.91C64.57 28.58 64.06 28.41 63.53 28.41L60.38 28.41C59.96 26.92 59.01 25.65 57.7 24.84C56.81 24.29 55.77 24 54.73 24C52.07 24 49.81 25.81 49.07 28.41ZM65.07 38.04L44.37 38.04Q44.21 38.04 44.07 37.98Q43.94 37.92 43.84 37.82Q43.73 37.72 43.68 37.59Q43.62 37.45 43.62 37.28L43.62 31.01Q43.62 30.71 43.69 30.43Q43.73 30.25 43.8 30.08Q43.9 29.84 44.04 29.62Q44.16 29.46 44.3 29.31Q44.49 29.11 44.73 28.96Q44.87 28.87 45.03 28.8Q45.23 28.71 45.44 28.67Q45.68 28.61 45.93 28.61L49.22 28.61L49.26 28.47Q49.45 27.81 49.76 27.22Q49.9 26.97 50.06 26.73Q50.4 26.22 50.84 25.79Q51.06 25.58 51.3 25.38Q51.75 25.03 52.25 24.78Q52.56 24.62 52.89 24.51Q53.26 24.38 53.64 24.3Q54.18 24.2 54.73 24.2Q55 24.2 55.27 24.22Q55.75 24.27 56.22 24.4Q56.57 24.51 56.91 24.65Q57.26 24.81 57.6 25.01Q58.05 25.29 58.44 25.64Q58.86 26.02 59.21 26.49Q59.46 26.82 59.65 27.17Q59.99 27.78 60.19 28.47L60.23 28.61L63.53 28.61Q63.79 28.61 64.04 28.67Q64.14 28.7 64.24 28.73Q64.41 28.79 64.57 28.87Q64.73 28.95 64.87 29.07L64.88 29.07L64.88 29.07Q65.01 29.17 65.13 29.28Q65.4 29.55 65.58 29.91Q65.71 30.17 65.77 30.44Q65.84 30.72 65.84 31.01L65.84 37.28Q65.84 37.45 65.78 37.58Q65.72 37.71 65.61 37.82Q65.5 37.92 65.38 37.98Q65.24 38.04 65.07 38.04ZM45.54 36.53L64.32 36.53L64.32 31.01Q64.32 30.88 64.28 30.76Q64.26 30.67 64.22 30.6Q64.15 30.45 64.03 30.34Q64 30.31 63.96 30.28Q63.8 30.16 63.62 30.13Q63.57 30.12 63.51 30.12L59.61 30.12Q59.47 30.12 59.34 30.08Q59.22 30.03 59.12 29.94Q59.01 29.85 58.95 29.74Q58.88 29.62 58.86 29.48Q58.75 28.76 58.45 28.14Q58.33 27.88 58.18 27.64Q57.86 27.15 57.45 26.77Q57.15 26.51 56.81 26.3Q56.43 26.07 56.02 25.92Q55.92 25.89 55.81 25.86Q55.44 25.75 55.06 25.72Q54.9 25.7 54.74 25.7Q54.34 25.7 53.96 25.78Q53.6 25.85 53.26 25.99Q53.03 26.08 52.82 26.2Q52.39 26.43 52.01 26.78Q51.84 26.93 51.69 27.1Q51.35 27.49 51.09 27.97Q51 28.16 50.91 28.36Q50.69 28.89 50.6 29.48Q50.58 29.62 50.51 29.74Q50.45 29.85 50.35 29.94Q50.24 30.03 50.12 30.08Q50 30.12 49.86 30.12L45.94 30.12Q45.86 30.12 45.79 30.14Q45.7 30.16 45.61 30.2Q45.58 30.22 45.55 30.24Q45.45 30.3 45.36 30.4Q45.27 30.51 45.21 30.63Q45.14 30.8 45.14 31.01L45.14 36.33L45.33 36.33L45.33 36.53L45.54 36.53ZM45.54 36.33L64.12 36.33L64.12 31.01C64.12 30.78 64.01 30.56 63.84 30.44C63.74 30.36 63.63 30.32 63.51 30.32L59.61 30.32C59.14 30.32 58.73 29.98 58.67 29.51C58.47 28.22 57.76 27.12 56.71 26.47C56.11 26.1 55.43 25.9 54.74 25.9C52.77 25.9 51.12 27.42 50.8 29.51C50.73 29.98 50.33 30.32 49.86 30.32L45.94 30.32C45.6 30.32 45.34 30.64 45.34 31.01L45.34 36.33L45.54 36.33Z" fill="#4057D9" fill-opacity="1.000000" fill-rule="evenodd"/>
				<path id="Vector" d="M76.07 77.04C69.18 77.04 63.58 71.44 63.58 64.55C63.58 57.66 69.18 52.06 76.07 52.06C82.96 52.06 88.56 57.66 88.56 64.55C88.56 71.44 82.96 77.04 76.07 77.04ZM76.07 53.97C70.23 53.97 65.49 58.71 65.49 64.55C65.49 70.39 70.23 75.13 76.07 75.13C81.91 75.13 86.65 70.39 86.65 64.55C86.65 58.71 81.91 53.97 76.07 53.97Z" fill="#4057D9" fill-opacity="1.000000" fill-rule="nonzero"/>
				<path id="Vector" d="M76.07 77.04C69.18 77.04 63.58 71.44 63.58 64.55C63.58 57.66 69.18 52.06 76.07 52.06C82.96 52.06 88.56 57.66 88.56 64.55C88.56 71.44 82.96 77.04 76.07 77.04ZM64.07 67.21Q63.78 65.91 63.78 64.55Q63.78 63.19 64.07 61.89Q64.31 60.81 64.74 59.77Q65.18 58.75 65.78 57.83Q66.47 56.78 67.38 55.86Q68.29 54.95 69.35 54.26Q70.26 53.66 71.29 53.23Q72.33 52.79 73.41 52.55Q74.71 52.26 76.07 52.26Q77.43 52.26 78.73 52.55Q79.81 52.79 80.85 53.23Q81.87 53.66 82.79 54.26Q83.85 54.95 84.76 55.86Q85.67 56.77 86.36 57.83Q86.96 58.75 87.39 59.77Q87.83 60.81 88.07 61.89Q88.36 63.19 88.36 64.55Q88.36 65.91 88.07 67.21Q87.83 68.29 87.39 69.33Q86.96 70.36 86.36 71.27Q85.67 72.33 84.76 73.24Q83.85 74.15 82.79 74.84Q81.87 75.44 80.85 75.88Q79.81 76.32 78.73 76.56Q77.43 76.84 76.07 76.84Q74.71 76.84 73.41 76.56Q72.33 76.32 71.29 75.88Q70.27 75.44 69.35 74.84Q68.29 74.15 67.38 73.24Q66.47 72.33 65.78 71.27Q65.18 70.36 64.74 69.33Q64.3 68.29 64.07 67.21ZM65.54 62.22Q65.29 63.36 65.29 64.55Q65.29 65.74 65.54 66.88Q65.75 67.83 66.14 68.75Q66.52 69.65 67.04 70.45Q67.65 71.37 68.45 72.17Q69.25 72.97 70.17 73.58Q70.97 74.1 71.88 74.48Q72.79 74.87 73.74 75.08Q74.88 75.33 76.07 75.33Q77.26 75.33 78.4 75.08Q79.35 74.87 80.26 74.48Q81.16 74.1 81.97 73.58Q82.89 72.97 83.69 72.17Q84.49 71.37 85.09 70.45Q85.62 69.65 86 68.75Q86.39 67.83 86.6 66.88Q86.85 65.74 86.85 64.55Q86.85 63.36 86.6 62.22Q86.39 61.27 86 60.36Q85.62 59.46 85.09 58.65Q84.49 57.73 83.69 56.93Q82.89 56.13 81.97 55.53Q81.16 55 80.26 54.62Q79.35 54.23 78.4 54.02Q77.26 53.77 76.07 53.77Q74.88 53.77 73.74 54.02Q72.79 54.23 71.88 54.62Q70.97 55 70.17 55.53Q69.25 56.13 68.45 56.93Q67.65 57.73 67.04 58.65Q66.52 59.46 66.14 60.36Q65.75 61.27 65.54 62.22ZM76.07 53.97C70.23 53.97 65.49 58.71 65.49 64.55C65.49 70.39 70.23 75.13 76.07 75.13C81.91 75.13 86.65 70.39 86.65 64.55C86.65 58.71 81.91 53.97 76.07 53.97Z" fill="#4057D9" fill-opacity="1.000000" fill-rule="evenodd"/>
				<path id="Vector" d="M54.73 33.07C53.01 33.07 51.6 31.66 51.6 29.94C51.6 28.22 53.01 26.81 54.73 26.81C56.45 26.81 57.86 28.22 57.86 29.94C57.86 31.67 56.45 33.07 54.73 33.07ZM54.73 28.72C54.06 28.72 53.51 29.27 53.51 29.94C53.51 30.61 54.06 31.16 54.73 31.16C55.4 31.16 55.95 30.61 55.95 29.94C55.95 29.27 55.4 28.72 54.73 28.72Z" fill="#4057D9" fill-opacity="1.000000" fill-rule="nonzero"/>
				<path id="Vector" d="M54.73 33.07C53.01 33.07 51.6 31.66 51.6 29.94C51.6 28.22 53.01 26.81 54.73 26.81C56.45 26.81 57.86 28.22 57.86 29.94C57.86 31.67 56.45 33.07 54.73 33.07ZM51.86 30.56Q51.8 30.26 51.8 29.94Q51.8 29.63 51.86 29.33Q51.92 29.06 52.03 28.8Q52.13 28.56 52.27 28.35Q52.44 28.09 52.66 27.87Q52.88 27.65 53.14 27.48Q53.35 27.34 53.59 27.24Q53.85 27.13 54.11 27.08Q54.41 27.01 54.73 27.01Q55.04 27.01 55.34 27.08Q55.61 27.13 55.87 27.24Q56.1 27.34 56.32 27.48Q56.58 27.65 56.8 27.87Q57.02 28.09 57.19 28.35Q57.33 28.56 57.43 28.8Q57.54 29.06 57.59 29.33Q57.66 29.63 57.66 29.94Q57.66 30.27 57.59 30.59Q57.53 30.84 57.43 31.08Q57.32 31.33 57.18 31.54Q57.02 31.8 56.8 32.01Q56.58 32.23 56.33 32.39Q56.11 32.54 55.87 32.64Q55.62 32.75 55.36 32.8Q55.05 32.87 54.73 32.87Q54.41 32.87 54.11 32.81Q53.85 32.75 53.59 32.64Q53.35 32.54 53.14 32.4Q52.88 32.23 52.66 32.01Q52.44 31.79 52.27 31.53Q52.13 31.32 52.03 31.08Q51.92 30.82 51.86 30.56ZM53.34 29.66Q53.31 29.8 53.31 29.94Q53.31 30.08 53.34 30.22Q53.36 30.36 53.42 30.49Q53.47 30.61 53.54 30.71Q53.62 30.84 53.73 30.94Q53.83 31.05 53.96 31.13Q54.06 31.2 54.18 31.25Q54.31 31.3 54.45 31.33Q54.58 31.36 54.73 31.36Q54.87 31.36 55.01 31.33Q55.15 31.3 55.28 31.25Q55.39 31.2 55.5 31.13Q55.62 31.05 55.73 30.94Q55.84 30.84 55.92 30.71Q55.99 30.61 56.04 30.49Q56.09 30.36 56.12 30.22Q56.15 30.08 56.15 29.94Q56.15 29.8 56.12 29.66Q56.09 29.52 56.04 29.39Q55.99 29.27 55.92 29.17Q55.84 29.05 55.73 28.94Q55.62 28.83 55.5 28.75Q55.39 28.68 55.28 28.63Q55.15 28.58 55.01 28.55Q54.87 28.52 54.73 28.52Q54.58 28.52 54.45 28.55Q54.31 28.58 54.18 28.63Q54.06 28.68 53.96 28.75Q53.83 28.83 53.73 28.94Q53.62 29.05 53.54 29.17Q53.47 29.27 53.42 29.39Q53.36 29.52 53.34 29.66ZM54.73 28.72C54.06 28.72 53.51 29.27 53.51 29.94C53.51 30.61 54.06 31.16 54.73 31.16C55.4 31.16 55.95 30.61 55.95 29.94C55.95 29.27 55.4 28.72 54.73 28.72Z" fill="#4057D9" fill-opacity="1.000000" fill-rule="evenodd"/>
				<path id="Vector" d="M73.87 69.15C73.63 69.15 73.39 69.06 73.2 68.87L69.7 65.43C69.33 65.05 69.32 64.45 69.69 64.08C70.05 63.7 70.67 63.7 71.04 64.07L73.86 66.84L81.06 59.65C81.43 59.28 82.03 59.28 82.41 59.65C82.78 60.02 82.78 60.62 82.41 61L74.54 68.85C74.37 69.06 74.12 69.15 73.87 69.15Z" fill="#4057D9" fill-opacity="1.000000" fill-rule="nonzero"/>
				<path id="Vector" d="M73.86 66.84L71.04 64.07C70.67 63.7 70.05 63.7 69.69 64.08C69.32 64.45 69.33 65.05 69.7 65.43L73.2 68.87C73.39 69.06 73.63 69.15 73.87 69.15C74.12 69.15 74.37 69.06 74.54 68.85L82.41 61C82.78 60.62 82.78 60.02 82.41 59.65C82.03 59.28 81.43 59.28 81.06 59.65L73.86 66.84ZM73.58 68.89Q73.45 68.84 73.35 68.73L73.35 68.73L69.84 65.28Q69.73 65.17 69.67 65.03Q69.62 64.9 69.61 64.75Q69.61 64.6 69.67 64.47Q69.72 64.33 69.83 64.22Q69.94 64.11 70.07 64.05Q70.21 64 70.36 63.99Q70.53 63.99 70.66 64.05Q70.79 64.1 70.9 64.21L73.87 67.13L81.2 59.79Q81.32 59.68 81.45 59.62Q81.58 59.57 81.73 59.57Q81.88 59.57 82.01 59.62Q82.15 59.68 82.27 59.79Q82.38 59.91 82.44 60.04Q82.49 60.17 82.49 60.32Q82.49 60.47 82.44 60.6Q82.38 60.74 82.27 60.86L74.4 68.72L74.39 68.72Q74.32 68.81 74.23 68.86Q74.08 68.95 73.87 68.95Q73.71 68.95 73.58 68.89Z" fill="#4057D9" fill-opacity="1.000000" fill-rule="evenodd"/>
				<path id="Vector" d="M68.78 43.9L40.68 43.9C40.15 43.9 39.73 43.48 39.73 42.94C39.73 42.41 40.15 41.99 40.68 41.99L68.78 41.99C69.31 41.99 69.73 42.41 69.73 42.94C69.73 43.48 69.31 43.9 68.78 43.9Z" fill="#4057D9" fill-opacity="1.000000" fill-rule="nonzero"/>
				<path id="Vector" d="M40.68 43.9L68.78 43.9C69.31 43.9 69.73 43.48 69.73 42.94C69.73 42.41 69.31 41.99 68.78 41.99L40.68 41.99C40.15 41.99 39.73 42.41 39.73 42.94C39.73 43.48 40.15 43.9 40.68 43.9ZM68.78 43.7L40.68 43.7Q40.51 43.7 40.37 43.64Q40.25 43.58 40.15 43.48Q40.04 43.38 39.99 43.25Q39.93 43.11 39.93 42.94Q39.93 42.78 39.99 42.64Q40.04 42.51 40.15 42.41Q40.25 42.31 40.37 42.25Q40.51 42.19 40.68 42.19L68.78 42.19Q68.94 42.19 69.08 42.25Q69.21 42.31 69.31 42.41Q69.41 42.51 69.47 42.64Q69.53 42.78 69.53 42.94Q69.53 43.11 69.47 43.25Q69.41 43.38 69.31 43.48Q69.21 43.58 69.08 43.64Q68.94 43.7 68.78 43.7Z" fill="#4057D9" fill-opacity="1.000000" fill-rule="evenodd"/>
				<path id="Vector" d="M68.78 52.03L40.68 52.03C40.15 52.03 39.73 51.61 39.73 51.08C39.73 50.54 40.15 50.12 40.68 50.12L68.78 50.12C69.31 50.12 69.73 50.54 69.73 51.08C69.73 51.61 69.31 52.03 68.78 52.03Z" fill="#4057D9" fill-opacity="1.000000" fill-rule="nonzero"/>
				<path id="Vector" d="M40.68 52.03L68.78 52.03C69.31 52.03 69.73 51.61 69.73 51.08C69.73 50.54 69.31 50.12 68.78 50.12L40.68 50.12C40.15 50.12 39.73 50.54 39.73 51.08C39.73 51.61 40.15 52.03 40.68 52.03ZM68.78 51.83L40.68 51.83Q40.51 51.83 40.37 51.77Q40.25 51.71 40.15 51.61Q40.04 51.51 39.99 51.38Q39.93 51.24 39.93 51.08Q39.93 50.91 39.99 50.77Q40.04 50.64 40.15 50.54Q40.25 50.44 40.37 50.38Q40.51 50.32 40.68 50.32L68.78 50.32Q68.94 50.32 69.08 50.38Q69.21 50.44 69.31 50.54Q69.41 50.64 69.47 50.77Q69.53 50.91 69.53 51.08Q69.53 51.24 69.47 51.38Q69.41 51.51 69.31 51.61Q69.21 51.71 69.08 51.77Q68.94 51.83 68.78 51.83Z" fill="#4057D9" fill-opacity="1.000000" fill-rule="evenodd"/>
				<path id="Vector" d="M61.61 60.16L40.68 60.16C40.15 60.16 39.73 59.74 39.73 59.21C39.73 58.67 40.15 58.25 40.68 58.25L61.61 58.25C62.14 58.25 62.56 58.67 62.56 59.21C62.56 59.74 62.14 60.16 61.61 60.16Z" fill="#4057D9" fill-opacity="1.000000" fill-rule="nonzero"/>
				<path id="Vector" d="M40.68 60.16L61.61 60.16C62.14 60.16 62.56 59.74 62.56 59.21C62.56 58.67 62.14 58.25 61.61 58.25L40.68 58.25C40.15 58.25 39.73 58.67 39.73 59.21C39.73 59.74 40.15 60.16 40.68 60.16ZM61.61 59.96L40.68 59.96Q40.51 59.96 40.37 59.9Q40.25 59.84 40.15 59.74Q40.04 59.64 39.99 59.51Q39.93 59.37 39.93 59.21Q39.93 59.04 39.99 58.9Q40.04 58.77 40.15 58.67Q40.25 58.57 40.37 58.51Q40.51 58.45 40.68 58.45L61.61 58.45Q61.78 58.45 61.92 58.51Q62.04 58.57 62.14 58.67Q62.25 58.77 62.3 58.9Q62.36 59.04 62.36 59.21Q62.36 59.37 62.3 59.51Q62.25 59.64 62.14 59.74Q62.04 59.84 61.92 59.9Q61.78 59.96 61.61 59.96Z" fill="#4057D9" fill-opacity="1.000000" fill-rule="evenodd"/>
				<path id="Vector" d="M61.61 68.29L40.68 68.29C40.15 68.29 39.73 67.87 39.73 67.34C39.73 66.81 40.15 66.38 40.68 66.38L61.61 66.38C62.14 66.38 62.56 66.81 62.56 67.34C62.56 67.87 62.14 68.29 61.61 68.29Z" fill="#4057D9" fill-opacity="1.000000" fill-rule="nonzero"/>
				<path id="Vector" d="M40.68 68.29L61.61 68.29C62.14 68.29 62.56 67.87 62.56 67.34C62.56 66.81 62.14 66.38 61.61 66.38L40.68 66.38C40.15 66.38 39.73 66.81 39.73 67.34C39.73 67.87 40.15 68.29 40.68 68.29ZM61.61 68.09L40.68 68.09Q40.51 68.09 40.37 68.03Q40.25 67.98 40.15 67.87Q40.04 67.77 39.99 67.64Q39.93 67.5 39.93 67.34Q39.93 67.17 39.99 67.03Q40.04 66.9 40.15 66.8Q40.25 66.7 40.37 66.64Q40.51 66.58 40.68 66.58L61.61 66.58Q61.78 66.58 61.92 66.64Q62.04 66.7 62.14 66.8Q62.25 66.9 62.3 67.03Q62.36 67.17 62.36 67.34Q62.36 67.5 62.3 67.64Q62.25 67.77 62.14 67.87Q62.04 67.98 61.92 68.03Q61.78 68.09 61.61 68.09Z" fill="#4057D9" fill-opacity="1.000000" fill-rule="evenodd"/>
				<path id="Vector" d="M64.53 76.42L40.68 76.42C40.15 76.42 39.73 76 39.73 75.47C39.73 74.94 40.15 74.51 40.68 74.51L64.53 74.51C65.06 74.51 65.49 74.94 65.49 75.47C65.49 76 65.05 76.42 64.53 76.42Z" fill="#4057D9" fill-opacity="1.000000" fill-rule="nonzero"/>
				<path id="Vector" d="M40.68 76.42L64.53 76.42C65.05 76.42 65.49 76 65.49 75.47C65.49 74.94 65.06 74.51 64.53 74.51L40.68 74.51C40.15 74.51 39.73 74.94 39.73 75.47C39.73 76 40.15 76.42 40.68 76.42ZM64.53 76.22L40.68 76.22Q40.51 76.22 40.37 76.16Q40.25 76.11 40.15 76Q40.04 75.9 39.99 75.78Q39.93 75.64 39.93 75.47Q39.93 75.3 39.99 75.16Q40.04 75.04 40.15 74.93Q40.25 74.83 40.37 74.77Q40.51 74.71 40.68 74.71L64.53 74.71Q64.7 74.71 64.84 74.77Q64.96 74.83 65.07 74.93Q65.17 75.04 65.23 75.16Q65.29 75.3 65.29 75.47Q65.29 75.62 65.23 75.76Q65.18 75.89 65.06 76Q64.95 76.11 64.82 76.17Q64.68 76.22 64.53 76.22Z" fill="#4057D9" fill-opacity="1.000000" fill-rule="evenodd"/>
			</g>
		</g>
	</g>
	<rect id="free-icon-chat-134808 4" rx="8.500000" width="90.000000" height="90.000000" transform="translate(10.500000 10.500000)" stroke="#4057D9" stroke-opacity="0" stroke-width="1.000000"/>
	<rect id="free-icon-chat-134808 4" rx="8.500000" width="90.000000" height="90.000000" transform="translate(10.500000 10.500000)" stroke="#FFFFFF" stroke-opacity="0.100000" stroke-width="1.000000"/>
</svg>
