<svg width="85.000000" height="85.000000" viewBox="0 0 85 85" fill="none" xmlns="http://www.w3.org/2000/svg" xmlns:xlink="http://www.w3.org/1999/xlink">
	<desc>
			Created with Pixso.
	</desc>
	<defs>
		<filter id="filter_234_2448_dd" x="-0.600098" y="-0.600098" width="84.896484" height="84.896484" filterUnits="userSpaceOnUse" color-interpolation-filters="sRGB">
			<feFlood flood-opacity="0" result="BackgroundImageFix"/>
			<feGaussianBlur in="BackgroundImage" stdDeviation="14.8"/>
			<feComposite in2="SourceAlpha" operator="in" result="effect_backgroundBlur_1"/>
			<feColorMatrix in="SourceAlpha" type="matrix" values="0 0 0 0 0 0 0 0 0 0 0 0 0 0 0 0 0 0 127 0" result="hardAlpha"/>
			<feOffset dx="0" dy="0"/>
			<feGaussianBlur stdDeviation="3.53333"/>
			<feComposite in2="hardAlpha" operator="out" k2="-1" k3="1"/>
			<feColorMatrix type="matrix" values="0 0 0 0 0.25098 0 0 0 0 0.34118 0 0 0 0 0.85098 0 0 0 0.7 0"/>
			<feBlend mode="normal" in2="effect_backgroundBlur_1" result="effect_dropShadow_2"/>
			<feBlend mode="normal" in="SourceGraphic" in2="effect_dropShadow_2" result="shape"/>
		</filter>
		<clipPath id="clip234_2449">
			<rect id="free-icon-settings-9351191 1" width="42.000000" height="42.000000" transform="matrix(1 0 0 -1 20.8481 62.8481)" fill="white" fill-opacity="0"/>
		</clipPath>
		<clipPath id="clip234_2448">
			<rect id="free-icon-chat-134808 1" rx="8.500000" width="62.696201" height="62.696201" transform="translate(10.500000 10.500000)" fill="white" fill-opacity="0"/>
		</clipPath>
	</defs>
	<g filter="url(#filter_234_2448_dd)">
		<rect id="free-icon-chat-134808 1" rx="8.500000" width="62.696201" height="62.696201" transform="translate(10.500000 10.500000)" fill="#FFFFFF" fill-opacity="0.050000"/>
		<rect id="free-icon-chat-134808 1" rx="8.500000" width="62.696201" height="62.696201" transform="translate(10.500000 10.500000)" fill="#071836" fill-opacity="0.500000"/>
		<g clip-path="url(#clip234_2448)">
			<rect id="free-icon-settings-9351191 1" width="42.000000" height="42.000000" transform="matrix(1 0 0 -1 20.8481 62.8481)" fill="#FFFFFF" fill-opacity="0"/>
			<g clip-path="url(#clip234_2449)">
				<path id="Vector" d="M41.84 35.54C40.6 35.54 39.38 35.91 38.34 36.6C37.31 37.3 36.5 38.28 36.02 39.43C35.55 40.59 35.42 41.85 35.67 43.08C35.91 44.3 36.51 45.42 37.39 46.3C38.27 47.18 39.4 47.78 40.62 48.03C41.84 48.27 43.11 48.14 44.26 47.67C45.41 47.19 46.4 46.38 47.09 45.34C47.78 44.31 48.15 43.09 48.15 41.84C48.15 40.17 47.48 38.57 46.3 37.39C45.12 36.21 43.51 35.54 41.84 35.54ZM41.84 50.77C40.08 50.77 38.35 50.25 36.88 49.27C35.42 48.28 34.27 46.89 33.6 45.26C32.92 43.63 32.74 41.83 33.09 40.1C33.43 38.37 34.28 36.78 35.53 35.53C36.78 34.28 38.37 33.43 40.1 33.09C41.83 32.74 43.63 32.92 45.26 33.59C46.89 34.27 48.29 35.41 49.27 36.88C50.25 38.35 50.77 40.07 50.77 41.84C50.77 44.21 49.83 46.48 48.16 48.15C46.48 49.83 44.21 50.77 41.84 50.77ZM60.22 39.6L60.22 44.09L56.75 45.1C56.53 45.16 56.34 45.27 56.19 45.43C56.03 45.58 55.91 45.77 55.85 45.98C55.56 46.97 55.17 47.92 54.68 48.82C54.57 49.01 54.52 49.23 54.52 49.45C54.52 49.67 54.57 49.89 54.68 50.08L56.43 53.25L53.25 56.43L50.08 54.68C49.89 54.57 49.67 54.52 49.45 54.52C49.23 54.52 49.01 54.57 48.82 54.68C47.92 55.17 46.97 55.56 45.99 55.85C45.77 55.91 45.58 56.03 45.43 56.19C45.27 56.34 45.16 56.54 45.1 56.75L44.09 60.22L39.6 60.22L38.59 56.75C38.53 56.54 38.42 56.34 38.26 56.19C38.11 56.03 37.91 55.91 37.7 55.85C36.72 55.56 35.77 55.17 34.87 54.68C34.67 54.57 34.46 54.52 34.24 54.52C34.02 54.52 33.8 54.57 33.61 54.68L30.44 56.43L27.26 53.25L29.01 50.08C29.11 49.89 29.17 49.67 29.17 49.45C29.17 49.23 29.11 49.01 29.01 48.82C28.52 47.92 28.12 46.97 27.83 45.98C27.77 45.77 27.66 45.58 27.5 45.43C27.34 45.27 27.15 45.16 26.94 45.1L23.47 44.09L23.47 39.6L26.94 38.59C27.15 38.53 27.34 38.41 27.5 38.26C27.66 38.11 27.77 37.91 27.83 37.7C28.12 36.72 28.52 35.77 29.01 34.87C29.11 34.67 29.17 34.46 29.17 34.24C29.17 34.02 29.11 33.8 29.01 33.61L27.26 30.44L30.44 27.26L33.61 29.01C33.8 29.11 34.02 29.17 34.24 29.17C34.46 29.17 34.67 29.11 34.87 29.01C35.77 28.52 36.72 28.12 37.7 27.83C37.91 27.77 38.1 27.66 38.26 27.5C38.42 27.34 38.53 27.15 38.59 26.94L39.6 23.47L44.09 23.47L45.1 26.94C45.16 27.15 45.27 27.34 45.43 27.5C45.58 27.66 45.77 27.77 45.99 27.83C46.97 28.12 47.92 28.52 48.82 29.01C49.01 29.11 49.23 29.17 49.45 29.17C49.67 29.17 49.89 29.11 50.08 29.01L53.25 27.26L56.43 30.44L54.68 33.61C54.57 33.8 54.52 34.02 54.52 34.24C54.52 34.46 54.57 34.67 54.68 34.87C55.17 35.77 55.56 36.72 55.85 37.7C55.91 37.91 56.03 38.11 56.19 38.26C56.34 38.41 56.53 38.53 56.75 38.59L60.22 39.6ZM61.9 46.33L58.15 47.42C57.91 48.11 57.64 48.78 57.32 49.43L59.2 52.85C59.34 53.09 59.39 53.38 59.35 53.66C59.31 53.94 59.18 54.2 58.98 54.4L54.41 58.98C54.2 59.18 53.94 59.31 53.66 59.35C53.38 59.39 53.09 59.34 52.84 59.2L49.43 57.32C48.78 57.64 48.11 57.92 47.42 58.15L46.34 61.89C46.26 62.17 46.09 62.41 45.87 62.58C45.64 62.75 45.36 62.84 45.08 62.84L38.61 62.84C38.33 62.84 38.05 62.75 37.82 62.58C37.59 62.41 37.43 62.17 37.35 61.89L36.26 58.15C35.58 57.92 34.91 57.64 34.26 57.32L30.84 59.2C30.59 59.34 30.31 59.39 30.03 59.35C29.74 59.31 29.48 59.18 29.28 58.98L24.71 54.4C24.51 54.2 24.38 53.94 24.34 53.66C24.3 53.38 24.35 53.09 24.49 52.85L26.37 49.43C26.05 48.78 25.77 48.11 25.54 47.43L21.79 46.34C21.52 46.26 21.28 46.09 21.11 45.86C20.93 45.64 20.84 45.36 20.84 45.08L20.84 38.61C20.84 38.33 20.93 38.05 21.11 37.82C21.28 37.59 21.52 37.43 21.79 37.35L25.54 36.26C25.77 35.58 26.05 34.91 26.37 34.26L24.49 30.84C24.35 30.59 24.3 30.31 24.34 30.02C24.38 29.74 24.51 29.48 24.71 29.28L29.28 24.71C29.48 24.5 29.74 24.37 30.03 24.34C30.31 24.3 30.59 24.35 30.84 24.49L34.26 26.37C34.91 26.05 35.58 25.77 36.26 25.54L37.35 21.79C37.43 21.52 37.59 21.28 37.82 21.11C38.05 20.94 38.32 20.84 38.61 20.84L45.08 20.84C45.36 20.84 45.64 20.94 45.87 21.11C46.09 21.28 46.26 21.52 46.34 21.79L47.42 25.54C48.11 25.77 48.78 26.05 49.43 26.37L52.84 24.49C53.09 24.35 53.38 24.3 53.66 24.33C53.94 24.37 54.2 24.5 54.41 24.71L58.98 29.28C59.18 29.48 59.31 29.74 59.35 30.02C59.39 30.31 59.34 30.59 59.2 30.84L57.32 34.26C57.64 34.91 57.91 35.58 58.15 36.26L61.9 37.35C62.17 37.43 62.41 37.59 62.58 37.82C62.75 38.05 62.84 38.33 62.84 38.61L62.84 45.08C62.84 45.36 62.75 45.64 62.58 45.86C62.41 46.09 62.17 46.26 61.9 46.34L61.9 46.33Z" fill="#4057D9" fill-opacity="1.000000" fill-rule="evenodd"/>
			</g>
		</g>
	</g>
	<rect id="free-icon-chat-134808 1" rx="8.500000" width="62.696201" height="62.696201" transform="translate(10.500000 10.500000)" stroke="#4057D9" stroke-opacity="0" stroke-width="1.000000"/>
	<rect id="free-icon-chat-134808 1" rx="8.500000" width="62.696201" height="62.696201" transform="translate(10.500000 10.500000)" stroke="#FFFFFF" stroke-opacity="0.100000" stroke-width="1.000000"/>
</svg>
