<svg width="163.000000" height="61.000000" viewBox="0 0 163 61" fill="none" xmlns="http://www.w3.org/2000/svg" xmlns:xlink="http://www.w3.org/1999/xlink">
	<desc>
			Created with Pixso.
	</desc>
	<defs>
		<clipPath id="clip78_288">
			<rect id="logo.svg" width="163.000000" height="61.000000" fill="white" fill-opacity="0"/>
		</clipPath>
		<linearGradient id="paint_linear_78_296_0" x1="63.548866" y1="19.455685" x2="25.103703" y2="67.190102" gradientUnits="userSpaceOnUse">
			<stop stop-color="#F7931E"/>
			<stop offset="1.000000" stop-color="#D4145A"/>
		</linearGradient>
		<linearGradient id="paint_linear_78_297_0" x1="49.916695" y1="11.534306" x2="11.471489" y2="59.268906" gradientUnits="userSpaceOnUse">
			<stop stop-color="#F7931E"/>
			<stop offset="1.000000" stop-color="#D4145A"/>
		</linearGradient>
		<linearGradient id="paint_linear_78_298_0" x1="40.506241" y1="39.406506" x2="61.577339" y2="58.956104" gradientUnits="userSpaceOnUse">
			<stop stop-color="#F7931E"/>
			<stop offset="0.110000" stop-color="#F17E28"/>
			<stop offset="0.400000" stop-color="#E5513D"/>
			<stop offset="0.650000" stop-color="#DC304D"/>
			<stop offset="0.860000" stop-color="#D61B57"/>
			<stop offset="1.000000" stop-color="#D4145A"/>
		</linearGradient>
		<linearGradient id="paint_linear_78_299_0" x1="40.156189" y1="0.615154" x2="1.711025" y2="48.349792" gradientUnits="userSpaceOnUse">
			<stop stop-color="#F7931E"/>
			<stop offset="1.000000" stop-color="#D4145A"/>
		</linearGradient>
		<linearGradient id="paint_linear_78_300_0" x1="35.892757" y1="-4.228622" x2="-2.942734" y2="43.990601" gradientUnits="userSpaceOnUse">
			<stop stop-color="#F7931E"/>
			<stop offset="1.000000" stop-color="#D4145A"/>
		</linearGradient>
		<linearGradient id="paint_linear_78_302_0" x1="60.831875" y1="10.336100" x2="40.929382" y2="43.498604" gradientUnits="userSpaceOnUse">
			<stop offset="0.280000" stop-color="#F7931E"/>
			<stop offset="0.370000" stop-color="#F58B22"/>
			<stop offset="0.500000" stop-color="#EF752C"/>
			<stop offset="0.670000" stop-color="#E5523D"/>
			<stop offset="0.860000" stop-color="#D72154"/>
			<stop offset="0.900000" stop-color="#D4145A"/>
		</linearGradient>
		<linearGradient id="paint_linear_78_303_0" x1="24.951200" y1="23.659100" x2="4.637663" y2="53.035301" gradientUnits="userSpaceOnUse">
			<stop stop-color="#F7931E"/>
			<stop offset="0.070000" stop-color="#EF752C"/>
			<stop offset="0.160000" stop-color="#E7573A"/>
			<stop offset="0.270000" stop-color="#E03F46"/>
			<stop offset="0.380000" stop-color="#DA2B4F"/>
			<stop offset="0.510000" stop-color="#D71E55"/>
			<stop offset="0.680000" stop-color="#D51659"/>
			<stop offset="1.000000" stop-color="#D4145A"/>
		</linearGradient>
	</defs>
	<g clip-path="url(#clip78_288)">
		<path id="Vector" d="M81.53 24.78C83.8 24.2 86.76 24.7 88.51 26.49C88.55 26.53 88.58 26.58 88.61 26.64C88.63 26.69 88.64 26.75 88.63 26.81C88.63 26.87 88.62 26.92 88.59 26.98C88.57 27.03 88.53 27.08 88.49 27.12L87 28.43C86.97 28.46 86.93 28.48 86.88 28.49C86.83 28.49 86.79 28.48 86.75 28.45C86.13 28.04 85.48 27.5 84.84 27.27C82.93 26.57 80.55 27.6 79.8 29.54C78.77 32.21 80.19 34.91 83.02 35.25C84.33 35.42 85.58 34.96 86.76 33.9C86.88 33.79 86.99 33.8 87.1 33.91L88.66 35.48C88.68 35.5 88.69 35.53 88.7 35.56C88.72 35.58 88.72 35.61 88.72 35.64C88.72 35.67 88.71 35.7 88.7 35.72C88.68 35.75 88.67 35.77 88.64 35.79C85.95 38.04 83.16 38.48 80.28 37.09C79.17 36.56 78.31 35.86 77.68 34.97C76.97 33.98 76.58 32.89 76.5 31.69C76.27 28.36 78.34 25.6 81.53 24.78Z" fill="#FFFFFF" fill-opacity="1.000000" fill-rule="nonzero"/>
		<path id="Vector" d="M104.17 33.58C103.54 32.79 101.94 32.48 100.71 32.21C98.55 31.71 96.43 30.31 97 27.65C97.42 25.7 99.82 24.63 101.6 24.55C103.29 24.47 104.89 24.74 106.39 25.38C106.47 25.41 106.54 25.47 106.59 25.55C106.64 25.62 106.67 25.71 106.67 25.8C106.66 26.42 106.24 28.14 105.25 27.65C103.92 26.98 102.54 26.79 101.1 27.08C100.28 27.25 99.85 27.74 99.8 28.55C99.79 28.64 99.82 28.72 99.87 28.79C100.24 29.21 100.67 29.49 101.18 29.63C102.71 30.04 104.83 30.31 106.06 31.35C108.94 33.78 106.63 37.23 103.6 37.74C101.54 38.09 99.48 37.79 97.43 36.83C96.99 36.63 96.76 36.51 96.85 35.96C96.95 35.41 97.14 34.89 97.43 34.4C97.47 34.32 97.55 34.26 97.63 34.23C97.72 34.21 97.82 34.22 97.9 34.26C99.5 35.08 101.57 35.71 103.35 35.28C104.11 35.1 104.76 34.32 104.17 33.58Z" fill="#FFFFFF" fill-opacity="1.000000" fill-rule="nonzero"/>
		<path id="Vector" d="M108.99 33.3C107.47 28.56 110.94 24.59 115.65 24.51C117.48 24.48 119.14 25.11 120.62 26.42C120.67 26.46 120.71 26.52 120.73 26.58C120.76 26.64 120.78 26.71 120.78 26.77C120.78 26.84 120.77 26.91 120.74 26.97C120.71 27.03 120.68 27.09 120.63 27.13L119.29 28.39C119.22 28.45 119.14 28.48 119.06 28.49C118.97 28.49 118.89 28.47 118.82 28.42C118.56 28.23 118.29 28.03 118.02 27.81C116.64 26.74 114.63 26.95 113.31 27.84C112.71 28.24 112.27 28.82 111.98 29.56C111.25 31.48 111.63 33.06 113.12 34.31C114.43 35.4 116.25 35.73 117.68 34.76C118.24 34.37 118.72 34.11 119.1 33.96C119.15 33.93 119.21 33.93 119.27 33.94C119.33 33.95 119.39 33.98 119.43 34.02L120.66 35.24C120.7 35.27 120.73 35.32 120.75 35.37C120.77 35.42 120.78 35.47 120.78 35.53C120.78 35.58 120.77 35.64 120.75 35.69C120.73 35.74 120.7 35.78 120.66 35.82C119.07 37.37 117.14 38.02 114.87 37.75C111.79 37.39 109.83 35.9 108.99 33.3Z" fill="#FFFFFF" fill-opacity="1.000000" fill-rule="nonzero"/>
		<path id="Vector" d="M136.02 31.18C136.02 32.95 135.28 34.64 133.96 35.88C132.64 37.13 130.85 37.83 128.98 37.83C127.11 37.83 125.32 37.13 124 35.88C122.68 34.64 121.94 32.95 121.94 31.18C121.94 29.42 122.68 27.73 124 26.48C125.32 25.23 127.11 24.53 128.98 24.53C130.85 24.53 132.64 25.23 133.96 26.48C135.28 27.73 136.02 29.42 136.02 31.18ZM133.06 31.19C133.06 30.65 132.95 30.12 132.74 29.62C132.54 29.12 132.24 28.67 131.86 28.29C131.48 27.91 131.02 27.6 130.53 27.4C130.03 27.19 129.5 27.09 128.96 27.09C127.87 27.09 126.83 27.52 126.06 28.29C125.29 29.06 124.86 30.1 124.86 31.19C124.86 32.28 125.29 33.32 126.06 34.09C126.83 34.86 127.87 35.3 128.96 35.3C129.5 35.3 130.03 35.19 130.53 34.98C131.02 34.78 131.48 34.47 131.86 34.09C132.24 33.71 132.54 33.26 132.74 32.76C132.95 32.26 133.06 31.73 133.06 31.19Z" fill="#FFFFFF" fill-opacity="1.000000" fill-rule="nonzero"/>
		<path id="Vector" d="M141.54 33.93C141.5 33.93 141.46 33.94 141.42 33.96C141.38 33.97 141.35 33.99 141.32 34.02C141.29 34.05 141.26 34.09 141.25 34.13C141.23 34.16 141.23 34.2 141.23 34.25L141.28 37.34C141.28 37.38 141.27 37.43 141.25 37.47C141.24 37.51 141.21 37.55 141.18 37.58C141.15 37.61 141.11 37.63 141.07 37.65C141.03 37.67 140.99 37.68 140.94 37.68L138.71 37.68C138.61 37.68 138.51 37.64 138.44 37.57C138.37 37.49 138.33 37.4 138.33 37.3L138.35 25.26C138.35 25.14 138.4 25.03 138.48 24.95C138.56 24.87 138.67 24.82 138.79 24.81C140.21 24.78 141.65 24.75 143.11 24.73C145.01 24.71 146.59 24.9 147.96 25.98C149.61 27.29 149.89 29.57 149.08 31.43C148.71 32.29 147.98 32.88 147.18 33.3C147.13 33.33 147.09 33.37 147.06 33.41C147.02 33.45 147 33.5 146.99 33.56C146.97 33.61 146.97 33.67 146.98 33.72C146.99 33.78 147.02 33.83 147.05 33.87L149.57 37.39C149.66 37.51 149.63 37.58 149.49 37.6C148.88 37.69 148.29 37.72 147.72 37.69C147.41 37.67 146.61 37.8 146.36 37.41C145.7 36.39 145.01 35.37 144.28 34.35C144.2 34.23 144.1 34.14 143.97 34.08C143.85 34.01 143.71 33.97 143.57 33.97L141.54 33.93ZM141.32 27.45L141.34 31.36C141.34 31.44 141.37 31.52 141.43 31.58C141.49 31.64 141.57 31.67 141.65 31.67L143.97 31.66C144.65 31.66 145.3 31.42 145.78 31C146.26 30.58 146.53 30.01 146.53 29.42L146.53 29.35C146.53 29.06 146.46 28.77 146.33 28.5C146.2 28.23 146.01 27.98 145.77 27.77C145.53 27.57 145.25 27.4 144.94 27.29C144.63 27.18 144.29 27.13 143.95 27.13L141.64 27.13C141.55 27.13 141.47 27.17 141.41 27.23C141.35 27.29 141.32 27.37 141.32 27.45Z" fill="#FFFFFF" fill-opacity="1.000000" fill-rule="nonzero"/>
		<path id="Vector" d="M154.75 32.53L154.84 35.01C154.84 35.08 154.87 35.15 154.92 35.2C154.97 35.24 155.04 35.27 155.11 35.27L161.72 35.23C161.76 35.23 161.79 35.24 161.83 35.25C161.86 35.27 161.89 35.29 161.92 35.31C161.94 35.34 161.96 35.37 161.98 35.4C161.99 35.44 162 35.47 162 35.51L162 37.4C162 37.47 161.97 37.54 161.92 37.59C161.86 37.64 161.79 37.67 161.72 37.67L152.26 37.65C152.19 37.65 152.12 37.62 152.07 37.57C152.02 37.52 151.99 37.45 151.99 37.38L152 25.07C152 24.99 152.02 24.92 152.08 24.87C152.13 24.82 152.2 24.79 152.27 24.79L161.47 24.77C161.54 24.77 161.61 24.8 161.66 24.85C161.72 24.9 161.74 24.97 161.74 25.04L161.74 26.84C161.74 26.91 161.72 26.98 161.66 27.03C161.61 27.08 161.54 27.11 161.47 27.11L155.09 27.14C155.02 27.14 154.95 27.17 154.9 27.22C154.85 27.27 154.82 27.34 154.82 27.41L154.79 29.69C154.79 29.72 154.79 29.76 154.81 29.79C154.82 29.83 154.84 29.86 154.87 29.89C154.89 29.91 154.92 29.93 154.96 29.95C154.99 29.96 155.03 29.97 155.06 29.97L160.75 29.94C160.79 29.94 160.82 29.95 160.86 29.96C160.89 29.98 160.92 30 160.95 30.03C160.98 30.05 161 30.09 161.01 30.12C161.02 30.16 161.03 30.2 161.02 30.23L160.92 31.97C160.91 32.04 160.88 32.11 160.83 32.16C160.78 32.21 160.71 32.23 160.64 32.23L155.02 32.25C154.98 32.25 154.95 32.26 154.92 32.27C154.88 32.29 154.85 32.31 154.83 32.33C154.8 32.36 154.78 32.39 154.77 32.42C154.75 32.46 154.75 32.49 154.75 32.53Z" fill="#FFFFFF" fill-opacity="1.000000" fill-rule="nonzero"/>
		<path id="Vector" d="M94.94 31.32L90.56 31.31C90.31 31.31 90.1 31.52 90.1 31.77L90.1 33.16C90.1 33.41 90.3 33.61 90.55 33.61L94.94 33.62C95.19 33.62 95.39 33.42 95.39 33.16L95.4 31.78C95.4 31.53 95.19 31.32 94.94 31.32Z" fill="#FFFFFF" fill-opacity="1.000000" fill-rule="nonzero"/>
		<path id="Vector" d="M34.42 60C37.29 60 39.61 57.68 39.61 54.82C39.61 51.96 37.29 49.64 34.42 49.64C31.56 49.64 29.24 51.96 29.24 54.82C29.24 57.68 31.56 60 34.42 60Z" fill="url(#paint_linear_78_296_0)" fill-opacity="1.000000" fill-rule="nonzero"/>
		<path id="Vector" d="M20.55 51.93C23.41 51.93 25.73 49.62 25.73 46.76C25.73 43.9 23.41 41.58 20.55 41.58C17.68 41.58 15.36 43.9 15.36 46.76C15.36 49.62 17.68 51.93 20.55 51.93Z" fill="url(#paint_linear_78_297_0)" fill-opacity="1.000000" fill-rule="nonzero"/>
		<path id="Vector" d="M48.45 51.93C51.32 51.93 53.64 49.62 53.64 46.76C53.64 43.9 51.32 41.58 48.45 41.58C45.59 41.58 43.27 43.9 43.27 46.76C43.27 49.62 45.59 51.93 48.45 51.93Z" fill="url(#paint_linear_78_298_0)" fill-opacity="1.000000" fill-rule="nonzero"/>
		<path id="Vector" d="M34.42 11.35C37.29 11.35 39.61 9.03 39.61 6.17C39.61 3.31 37.29 1 34.42 1C31.56 1 29.24 3.31 29.24 6.17C29.24 9.03 31.56 11.35 34.42 11.35Z" fill="url(#paint_linear_78_299_0)" fill-opacity="1.000000" fill-rule="nonzero"/>
		<path id="Vector" d="M24.02 17.93C26.04 15.91 26.04 12.63 24.02 10.61C21.99 8.59 18.71 8.59 16.68 10.61C14.66 12.63 14.66 15.91 16.69 17.93C18.71 19.95 22 19.95 24.02 17.93Z" fill="url(#paint_linear_78_300_0)" fill-opacity="1.000000" fill-rule="nonzero"/>
		<path id="Vector" d="M52.09 17.93C54.11 15.91 54.11 12.63 52.09 10.61C50.06 8.59 46.78 8.59 44.75 10.61C42.73 12.63 42.73 15.91 44.76 17.93C46.78 19.95 50.07 19.95 52.09 17.93Z" fill="#F38425" fill-opacity="1.000000" fill-rule="nonzero"/>
		<path id="Vector" d="M67.82 38.83C67.83 37.96 67.64 37.1 67.25 36.32C67 35.82 66.54 34.7 66.38 34.24C65.91 32.89 65.32 31.06 65.45 30.09C65.99 26.17 67.78 24.5 67.78 22.54C67.78 20.43 65.75 17.37 62.59 17.37C61.22 17.37 59.9 17.91 58.93 18.88C57.96 19.85 57.41 21.17 57.41 22.54L57.45 23.18C57.91 25.35 58.61 25.59 59.54 28.19C60.3 30.3 60.04 31.31 59.43 33.01C59.41 33.08 59.38 33.15 59.36 33.22C58.27 32.95 57.19 32.6 56.65 32.18C54.89 30.76 53.97 29.38 53.18 28.26C52.38 27.11 51.54 26.25 50.22 25.8C50.22 25.8 49.06 25.38 48.35 25.3C47.77 25.24 47.09 25.23 46.75 25.16C45.35 24.86 43.47 24.42 42.71 23.81C39.61 21.33 39.1 18.94 37.42 17.93L37.37 17.89C35.03 16.26 31.92 17.02 30.28 19.36C29.51 20.46 29.2 21.81 29.4 23.13C29.6 24.45 30.31 25.64 31.38 26.45C31.48 26.53 31.59 26.6 31.7 26.65L32.38 26.99C32.45 27.02 32.69 27.12 32.76 27.14C34.78 27.81 35.37 27.36 38.04 27.89C40.23 28.33 40.97 29.07 42.12 30.48C43.21 31.7 43.67 33.29 44.8 34.36C45.15 34.68 45.53 34.96 45.95 35.19L46.6 35.47C48.7 36.19 49.27 35.71 51.98 36.26C54.18 36.7 54.92 37.44 56.06 38.84C57.16 40.07 57.62 41.66 58.75 42.72C59.31 43.24 59.96 43.64 60.68 43.9C61.4 44.15 62.16 44.25 62.92 44.2C65.63 44.02 67.8 41.82 67.83 39.11C67.83 39.01 67.82 38.92 67.82 38.83Z" fill="url(#paint_linear_78_302_0)" fill-opacity="1.000000" fill-rule="nonzero"/>
		<path id="Vector" d="M1 22.28C0.99 23.15 1.18 24.01 1.57 24.79C1.82 25.29 2.29 26.41 2.44 26.87C2.91 28.22 3.5 30.05 3.37 31.02C2.83 34.95 1.04 36.61 1.04 38.57C1.04 40.69 3.07 43.75 6.23 43.75C7.6 43.75 8.92 43.2 9.89 42.23C10.86 41.26 11.41 39.94 11.41 38.57L11.37 37.93C10.91 35.76 10.21 35.52 9.28 32.92C8.52 30.81 8.78 29.8 9.39 28.1C9.42 28.03 9.44 27.96 9.46 27.89C10.55 28.16 11.64 28.51 12.17 28.93C13.93 30.35 14.86 31.73 15.64 32.85C16.44 34 17.28 34.86 18.61 35.31C18.61 35.31 19.76 35.73 20.47 35.81C21.06 35.87 21.74 35.88 22.07 35.95C23.48 36.25 25.35 36.69 26.11 37.3C29.21 39.78 29.72 42.17 31.4 43.18L31.45 43.22C33.79 44.86 36.9 44.09 38.55 41.75C39.31 40.65 39.63 39.3 39.42 37.98C39.22 36.66 38.51 35.47 37.44 34.66C37.34 34.59 37.23 34.52 37.12 34.46L36.44 34.12C36.37 34.09 36.13 33.99 36.06 33.97C34.05 33.31 33.45 33.76 30.79 33.22C28.59 32.78 27.85 32.05 26.71 30.64C25.62 29.41 25.16 27.82 24.02 26.75C23.68 26.43 23.29 26.15 22.88 25.93L22.22 25.64C20.12 24.93 19.56 25.4 16.84 24.86C14.65 24.42 13.9 23.68 12.76 22.27C11.67 21.05 11.21 19.46 10.07 18.39C9.52 17.87 8.86 17.47 8.14 17.22C7.43 16.97 6.67 16.86 5.91 16.91C3.2 17.09 1.03 19.3 1 22.01C1 22.1 1 22.19 1 22.28Z" fill="url(#paint_linear_78_303_0)" fill-opacity="1.000000" fill-rule="nonzero"/>
	</g>
</svg>
