<svg width="192" height="100" viewBox="0 0 192 100" fill="none" xmlns="http://www.w3.org/2000/svg">
<g filter="url(#filter0_bd_101_54)">
<path d="M11 13C11 11.8954 11.8954 11 13 11H49.7017H75.1592C75.6753 11 76.1715 11.1995 76.5439 11.5569L87.823 22.3798C88.1954 22.7372 88.6916 22.9367 89.2077 22.9367H179C180.105 22.9367 181 23.8322 181 24.9367V87C181 88.1046 180.105 89 179 89H13C11.8954 89 11 88.1046 11 87L11 13Z" fill="#071836" fill-opacity="0.6" shape-rendering="crispEdges"/>
<path d="M180.5 24.9367V87C180.5 87.8284 179.828 88.5 179 88.5H13C12.1716 88.5 11.5 87.8284 11.5 87V13C11.5 12.1716 12.1716 11.5 13 11.5H49.7017H75.1592C75.5463 11.5 75.9184 11.6497 76.1977 11.9177L87.4768 22.7406C87.9423 23.1873 88.5625 23.4367 89.2077 23.4367H179C179.828 23.4367 180.5 24.1083 180.5 24.9367Z" stroke="white" stroke-opacity="0.1" shape-rendering="crispEdges"/>
</g>
<defs>
<filter id="filter0_bd_101_54" x="-4" y="-4" width="200" height="108" filterUnits="userSpaceOnUse" color-interpolation-filters="sRGB">
<feFlood flood-opacity="0" result="BackgroundImageFix"/>
<feGaussianBlur in="BackgroundImageFix" stdDeviation="7.5"/>
<feComposite in2="SourceAlpha" operator="in" result="effect1_backgroundBlur_101_54"/>
<feColorMatrix in="SourceAlpha" type="matrix" values="0 0 0 0 0 0 0 0 0 0 0 0 0 0 0 0 0 0 127 0" result="hardAlpha"/>
<feOffset/>
<feGaussianBlur stdDeviation="5.3"/>
<feComposite in2="hardAlpha" operator="out"/>
<feColorMatrix type="matrix" values="0 0 0 0 0.25098 0 0 0 0 0.341176 0 0 0 0 0.85098 0 0 0 0.7 0"/>
<feBlend mode="normal" in2="effect1_backgroundBlur_101_54" result="effect2_dropShadow_101_54"/>
<feBlend mode="normal" in="SourceGraphic" in2="effect2_dropShadow_101_54" result="shape"/>
</filter>
</defs>
</svg>
